<svg width="100" height="100" viewBox="0 0 100 100" fill="none" xmlns="http://www.w3.org/2000/svg">
<rect width="100" height="100" rx="50" fill="#FBFEFB"/>
<path d="M24.675 15.3718C24.8893 14.9022 24.9464 14.3745 24.8376 13.8689C24.7288 13.3634 24.46 12.9076 24.0722 12.5711C23.6843 12.2345 23.1986 12.0355 22.6889 12.0043C22.1792 11.9731 21.6734 12.1115 21.2484 12.3983L21.2391 12.4031L21.225 12.4126L21.1828 12.4411L21.0422 12.5361L20.5641 12.8923C20.0337 13.2996 19.5177 13.7258 19.0172 14.1701C17.8359 15.2151 16.3125 16.7684 15.2297 18.6209C14.2832 20.156 13.5245 21.8021 12.9703 23.5229C12.4078 25.2282 12 27.076 12 28.6245C12 32.6763 13.4813 36.1295 15.7922 38.2481L15.4922 38.5996C14.1797 40.2336 13.4156 42.3521 12.9375 44.4421C12 48.5746 12 53.5432 12 57.006V57.1247C12 70.3631 13.7766 77.8729 15.7313 82.1669C16.7156 84.3282 17.7609 85.7057 18.6656 86.5702C19.1203 87.0072 19.5328 87.3065 19.875 87.5107C20.0747 87.6324 20.2831 87.7388 20.4984 87.829C20.4984 87.829 21.0281 88 21.375 88C21.7219 88 22.2516 87.829 22.2516 87.829C22.4669 87.7388 22.6753 87.6324 22.875 87.5107C23.3106 87.2426 23.7161 86.9272 24.0844 86.5702C24.9891 85.701 26.0344 84.3282 27.0187 82.1669C28.9734 77.8729 30.75 70.3631 30.75 57.1247V57.006C30.75 53.5384 30.75 48.5746 29.8125 44.4421C29.3344 42.3521 28.5703 40.2336 27.2578 38.5996L26.9578 38.2481C29.2687 36.1295 30.75 32.6763 30.75 28.6245C30.75 25.3137 30.0891 23.0384 28.8938 21.2191C28.3619 20.4378 27.749 19.7165 27.0656 19.0674L26.2688 18.3074C25.9828 18.0366 25.7203 17.7896 25.3781 17.4429C24.675 16.7304 24.5953 16.1604 24.5953 15.8611C24.5935 15.6946 24.6204 15.529 24.675 15.3718ZM26.0625 28.6245C26.0625 33.707 23.1844 35.7448 21.3844 35.7495H21.375C19.5703 35.7495 16.6875 33.7165 16.6875 28.6245C16.6875 27.8027 16.9312 26.5012 17.4187 25.0287C17.8619 23.6381 18.4744 22.3089 19.2422 21.0719C19.65 20.3736 20.1797 19.6944 20.7516 19.0721C21.0703 19.6548 21.5078 20.2327 22.0641 20.8059C22.4062 21.1526 22.8516 21.5707 23.2312 21.9317L23.8125 22.4827C24.3047 22.9672 24.6844 23.3899 24.9891 23.8602C25.5516 24.7104 26.0625 25.9977 26.0625 28.6245ZM17.5078 45.5109C17.9109 43.7344 18.4641 42.4233 19.125 41.6016C19.3821 41.2473 19.7205 40.9619 20.1108 40.7698C20.5012 40.5778 20.9319 40.4851 21.3656 40.4996H21.375C22.3594 40.4996 23.0344 40.8701 23.625 41.6016C24.2859 42.4233 24.8437 43.7344 25.2422 45.5109C26.0531 49.0639 26.0625 53.5289 26.0625 57.1247C26.0625 70.0116 24.3234 76.7519 22.7625 80.1767C22.2469 81.3024 21.7641 82.053 21.375 82.5517C20.8193 81.8199 20.3534 81.0224 19.9875 80.1767C18.4266 76.7519 16.6875 70.0116 16.6875 57.1247C16.6875 53.5289 16.6969 49.0639 17.5078 45.5109ZM44.8125 64.2498C41.4609 64.2498 38.2687 63.5373 35.3906 62.2548C35.4531 60.5638 35.4844 58.8062 35.4844 56.9822C38.3236 58.632 41.5396 59.5 44.8125 59.4997V49.9997C44.8125 47.4801 45.8002 45.0637 47.5584 43.2821C49.3165 41.5005 51.7011 40.4996 54.1875 40.4996H63.5625C63.563 37.1257 62.6769 33.8126 60.9953 30.9007C59.3137 27.9888 56.8973 25.5831 53.9944 23.9309C51.0915 22.2787 47.8068 21.4396 44.4779 21.4998C41.149 21.56 37.896 22.5173 35.0531 24.2734C34.7609 22.6795 34.2264 21.1412 33.4687 19.7134C37.0372 17.7134 41.0588 16.6914 45.1363 16.7485C49.2138 16.8056 53.2061 17.9398 56.7186 20.0389C60.2311 22.1381 63.1424 25.1297 65.1647 28.718C67.1871 32.3063 68.2505 36.3673 68.25 40.4996H77.625C80.1114 40.4996 82.496 41.5005 84.2541 43.2821C86.0123 45.0637 87 47.4801 87 49.9997V73.7499C87 76.2695 86.0123 78.6858 84.2541 80.4674C82.496 82.2491 80.1114 83.25 77.625 83.25H54.1875C51.7011 83.25 49.3165 82.2491 47.5584 80.4674C45.8002 78.6858 44.8125 76.2695 44.8125 73.7499V64.2498ZM67.7812 45.2496C66.857 49.8113 64.6323 53.998 61.3827 57.2909C58.1332 60.5838 54.0016 62.8382 49.5 63.7748V73.7499C49.5 75.0097 49.9939 76.2179 50.8729 77.1087C51.752 77.9995 52.9443 78.4999 54.1875 78.4999H77.625C78.8682 78.4999 80.0605 77.9995 80.9396 77.1087C81.8186 76.2179 82.3125 75.0097 82.3125 73.7499V49.9997C82.3125 48.7399 81.8186 47.5317 80.9396 46.6409C80.0605 45.7501 78.8682 45.2496 77.625 45.2496H67.7812ZM62.9719 45.2496H54.1875C52.9443 45.2496 51.752 45.7501 50.8729 46.6409C49.9939 47.5317 49.5 48.7399 49.5 49.9997V58.9012C52.7422 58.0485 55.7007 56.3333 58.0692 53.9332C60.4378 51.533 62.1304 48.5351 62.9719 45.2496Z" fill="#0B0500"/>
</svg>
