<svg width="60" height="60" viewBox="0 0 60 60" fill="none" xmlns="http://www.w3.org/2000/svg">
<path d="M16.5 9C16.2408 8.99995 15.9859 9.06707 15.7604 9.19484C15.5348 9.3226 15.3462 9.50664 15.213 9.729L6.21299 24.729C6.05323 24.9959 5.9804 25.3059 6.00459 25.616C6.02877 25.9261 6.14878 26.2211 6.34799 26.46L28.848 53.46C28.9888 53.6288 29.1649 53.7646 29.364 53.8578C29.5631 53.951 29.7802 53.9993 30 53.9993C30.2198 53.9993 30.4369 53.951 30.636 53.8578C30.8351 53.7646 31.0112 53.6288 31.152 53.46L53.652 26.46C53.8512 26.2211 53.9712 25.9261 53.9954 25.616C54.0196 25.3059 53.9468 24.9959 53.787 24.729L44.787 9.729C44.6538 9.50664 44.4652 9.3226 44.2396 9.19484C44.014 9.06707 43.7592 8.99995 43.5 9H16.5ZM10.149 24L17.349 12H23.286L18.486 24H10.149ZM18.474 27L25.275 44.487L10.704 27H18.474ZM30 48.36L21.693 27H38.307L30 48.36ZM21.717 24L26.517 12H33.483L38.283 24H21.717ZM41.517 24L36.717 12H42.651L49.851 24H41.517ZM41.526 27H49.296L34.725 44.487L41.526 27Z" fill="#0B0500"/>
</svg>
