<?xml version="1.0" encoding="UTF-8"?>
<svg id="Favicons" xmlns="http://www.w3.org/2000/svg" xmlns:xlink="http://www.w3.org/1999/xlink" viewBox="0 0 512 512">
  <defs>
    <style>
      .cls-1 {
        fill: url(#linear-gradient-2);
      }

      .cls-2 {
        fill: #628b48;
      }

      .cls-3 {
        fill: url(#linear-gradient);
      }
    </style>
    <linearGradient id="linear-gradient" x1="143.39" y1="336.08" x2="234.78" y2="192.13" gradientUnits="userSpaceOnUse">
      <stop offset="0" stop-color="#628b48"/>
      <stop offset="1" stop-color="#eca72c"/>
    </linearGradient>
    <linearGradient id="linear-gradient-2" x1="136.22" y1="336.86" x2="278.55" y2="322.37" gradientUnits="userSpaceOnUse">
      <stop offset="0" stop-color="#628b48"/>
      <stop offset="1" stop-color="#eca72c"/>
    </linearGradient>
  </defs>
  <path class="cls-2" d="M256,19.82c31.89,0,62.82,6.24,91.93,18.56,28.12,11.89,53.38,28.93,75.07,50.62,21.69,21.69,38.72,46.95,50.62,75.08,12.31,29.11,18.56,60.04,18.56,91.93s-6.24,62.82-18.56,91.93c-11.9,28.12-28.93,53.38-50.62,75.07-21.69,21.69-46.95,38.72-75.08,50.62-29.11,12.31-60.04,18.56-91.93,18.56s-62.82-6.24-91.93-18.56c-28.12-11.89-53.38-28.93-75.07-50.62-21.69-21.69-38.72-46.95-50.62-75.08-12.31-29.11-18.56-60.04-18.56-91.93s6.24-62.82,18.56-91.93c11.89-28.12,28.93-53.38,50.62-75.07s46.95-38.72,75.08-50.62c29.11-12.31,60.04-18.56,91.93-18.56M256,9.82h0C120.04,9.82,9.82,120.04,9.82,256h0c0,135.96,110.22,246.18,246.18,246.18h0c135.96,0,246.18-110.22,246.18-246.18h0c0-135.96-110.22-246.18-246.18-246.18h0Z"/>
  <path class="cls-3" d="M337.84,209.99c-2.58,1-5.12,2.08-7.73,3-15.51,5.44-31.3,9.64-47.92,8.52-17.09-1.13-33.87-4.49-50.48-8.54-8.61-2.11-17.16-4.43-25.75-6.64-2.4-.62-4.82-1.23-7.24-1.82-1.97-.49-3.94-.96-5.92-1.42-3.43-.8-6.86-1.3-10.25-1.53,8.29-4.66,17.34-6.77,17.34-6.77-19.7.3-36.89,7.06-46.69,11.88-.12.04-.23.1-.33.16-2.59,1.17-5.09,2.53-7.5,4.1-.07.04-.14.09-.22.13-.12.06-.23.14-.35.22-.19.13-.29.19-.29.19-8.94,5.96-16.4,14.41-21.46,24.94-9.62,19.99-13.55,40.99-9.61,63.11.3,1.72.72,3.43,1.1,5.15-3.08-4.23-5.77-8.57-8.06-13.03-6.82-13.37-9.88-27.8-8.34-43.24,3.52-35.01,20.77-61.33,52.26-77.79,4.6-2.42,9.28-4.75,14.08-6.72,10.29-4.2,18.6-10.54,25.23-19.61,7.32-10.04,15.66-19.31,26.11-26.33,6.01-4.02,12.52-6.66,20.35-7.24-.97,2.29-1.82,4.24-2.65,6.22-4.78,11.3-8.73,22.82-9.26,35.23-.12,2.52.12,5.1.48,7.6.91,6.24,4.05,11.01,9.57,14.27,18.06,10.65,37.15,19.06,57.04,25.67,12.32,4.1,24.83,7.4,37.77,8.87,2.82.32,5.67.52,8.71,1.42Z"/>
  <path class="cls-2" d="M196.03,334.83c-77.56,2.79-72.83-78.95-72.83-78.95-.07.06-.12.14-.14.25-.88,3.57-3.58,14.7-3.58,29.67-.01,42.71,34.95,80.81,76.2,83.69.3.01.61.01.9.06,29.47,3.42,55.44-1.39,83.75,31.74-8.5-37.37-40.97-64.2-84.3-66.46Z"/>
  <path class="cls-1" d="M402.97,232.02c-13.47,1.53-26.93,3.71-40.09,6.45-17.69,3.68-54.95,15.86-84.22,30.86-2.47,1.26-5.24,1.81-8,1.53-1.92-.2-3.78-.77-5.46-1.71-1.92-1.07-4.96-2.68-8.97-4.44-1.45-.64-3.03-1.3-4.72-1.97-17.58-6.92-47.93-14.37-82.44-3.53-1.64.49-3.27,1.06-4.92,1.65-.59.22-.54,1.1.09,1.22,2.33.42,6.28,1.2,11.13,2.4,16.98,4.15,44.85,13.39,51.41,30.04-.61.32-1.22.64-1.84.94-2.69,1.35-5.47,2.52-8.34,3.52-7.32,2.56-15.21,3.95-23.4,3.95-14.81,0-28.54-4.52-39.92-12.26-9.05-6.16-18.22-16.54-23.62-26.11-.03.77,0,62.64,61.88,64.85,4.12.14,71.18-5.77,95.72,69.76,22.95-7.28,47.61-18.55,68.74-34.33,11.64-8.68,28.41-24.63,34.11-38.87-11.19-2.19-18.7.42-28.84,2.33,3.53-10.12,8.05-15.7,17.41-19.99,4.88-2.26,10.26-3.44,15.28-5.38,1.35-.48,2.88-1.85,3.29-3.14,4.36-13.21,15.02-43.14,16.76-55.99,1.14-8.5-2.55-12.72-11.06-11.78ZM378.63,258.55c-8.9,3.27-15.7-.12-15.7-.12,7.99-2.84,8.42-4.98,15.59-7.47,9-3.14,9.02,4.31.12,7.58Z"/>
</svg>