<svg width="61" height="60" viewBox="0 0 61 60" fill="none" xmlns="http://www.w3.org/2000/svg">
<path d="M31.3986 9.03614C31.1743 9.03573 30.9527 9.08566 30.7502 9.18223C30.5477 9.2788 30.3695 9.41955 30.2286 9.59413L29.9616 9.79213C24.7866 8.19013 18.8826 9.36613 14.7726 13.3261C13.051 14.959 11.7703 17.0006 11.0496 19.2613C10.329 21.522 10.1917 23.9282 10.6506 26.2561L10.5006 26.3941L8.16362 28.6441C7.71155 29.073 7.35153 29.5894 7.10551 30.1619C6.85948 30.7344 6.7326 31.351 6.7326 31.9741C6.7326 32.5973 6.85948 33.2139 7.10551 33.7864C7.35153 34.3589 7.71155 34.8753 8.16362 35.3041C9.35762 36.4561 11.0136 36.8881 12.5526 36.6001C12.7416 37.4671 13.1826 38.2921 13.8816 38.9641C14.8026 39.8521 15.9996 40.3111 17.2056 40.3441C17.2386 41.5051 17.7156 42.6571 18.6366 43.5451C19.5576 44.4331 20.7576 44.8951 21.9636 44.9251C21.9936 46.0861 22.4736 47.2411 23.3946 48.1291C24.2763 48.9659 25.4314 49.4549 26.6459 49.5057C27.8604 49.5564 29.0522 49.1654 30.0006 48.4051L31.3116 49.6651C33.2316 51.5161 36.3456 51.5161 38.2656 49.6651C39.1836 48.7831 39.6606 47.6371 39.7026 46.4791C40.9026 46.4431 42.0876 45.9841 43.0026 45.1021C43.9176 44.2201 44.3976 43.0711 44.4336 41.9131C45.6526 41.869 46.8129 41.379 47.6946 40.5361C48.4236 39.8371 48.8736 38.9701 49.0476 38.0641C49.8198 38.1993 50.613 38.1514 51.3633 37.9242C52.1136 37.697 52.8001 37.2969 53.3676 36.7561C53.8202 36.3272 54.1806 35.8106 54.4269 35.2379C54.6732 34.6651 54.8002 34.0481 54.8002 33.4246C54.8002 32.8011 54.6732 32.1842 54.4269 31.6114C54.1806 31.0386 53.8202 30.522 53.3676 30.0931L51.2076 28.0141L51.6486 26.3641C52.5375 22.9906 52.086 19.404 50.3886 16.3561C47.8806 11.8381 43.0146 9.04814 37.7526 9.04814H34.0626L33.5856 9.03614H31.3986ZM38.7576 20.1841L45.9726 27.1351L45.9816 27.1411L51.2046 32.1751C51.3743 32.336 51.5094 32.5298 51.6017 32.7446C51.6941 32.9594 51.7417 33.1908 51.7417 33.4246C51.7417 33.6585 51.6941 33.8898 51.6017 34.1047C51.5094 34.3195 51.3743 34.5132 51.2046 34.6741C50.8538 35.0054 50.3896 35.1899 49.9071 35.1899C49.4246 35.1899 48.9604 35.0054 48.6096 34.6741L44.6466 30.8581C44.3561 30.5794 43.9692 30.4238 43.5666 30.4238C43.1641 30.4238 42.7771 30.5794 42.4866 30.8581L42.4446 30.8941C42.3039 31.0286 42.192 31.1901 42.1155 31.3691C42.039 31.548 41.9996 31.7405 41.9996 31.9351C41.9996 32.1297 42.039 32.3223 42.1155 32.5012C42.192 32.6801 42.3039 32.8417 42.4446 32.9761L45.5346 35.9521C46.2546 36.6421 46.2546 37.7641 45.5346 38.4571C45.216 38.7591 44.8022 38.9407 44.3643 38.9708C43.9263 39.0009 43.4916 38.8776 43.1346 38.6221C42.8367 38.4069 42.4728 38.3028 42.1062 38.3281C41.7395 38.3533 41.3933 38.5061 41.1276 38.7601C40.868 39.0084 40.7112 39.3452 40.6885 39.7036C40.6657 40.0621 40.7785 40.416 41.0046 40.6951C41.2739 41.0325 41.4067 41.4586 41.3767 41.8892C41.3467 42.3198 41.1561 42.7234 40.8426 43.0201C40.5195 43.3266 40.0985 43.5091 39.6539 43.5354C39.2093 43.5618 38.7697 43.4303 38.4126 43.1641C38.1162 42.9418 37.7508 42.8313 37.3808 42.8521C37.0109 42.873 36.6602 43.0239 36.3906 43.2781C36.1276 43.526 35.9681 43.8642 35.9442 44.2248C35.9203 44.5854 36.0337 44.9417 36.2616 45.2221C36.5386 45.5634 36.6761 45.9968 36.6466 46.4354C36.6172 46.8739 36.4228 47.285 36.1026 47.5861C35.7475 47.9231 35.2767 48.111 34.7871 48.111C34.2976 48.111 33.8267 47.9231 33.4716 47.5861L32.1726 46.3351L32.6466 45.8791C33.0992 45.4502 33.4596 44.9336 33.7059 44.3609C33.9522 43.7881 34.0792 43.1711 34.0792 42.5476C34.0792 41.9241 33.9522 41.3072 33.7059 40.7344C33.4596 40.1616 33.0992 39.645 32.6466 39.2161C31.7494 38.3578 30.5639 37.8657 29.3226 37.8361C29.2856 36.6215 28.7714 35.4704 27.8916 34.6321C26.9932 33.7742 25.8065 33.2831 24.5646 33.2551C24.5276 32.0405 24.0134 30.8894 23.1336 30.0511C22.5573 29.5026 21.8586 29.0992 21.0953 28.8743C20.3321 28.6495 19.5263 28.6097 18.7446 28.7581C18.5464 27.8556 18.0837 27.0326 17.4156 26.3941C16.9036 25.9045 16.293 25.5297 15.6246 25.2948C14.9562 25.0599 14.2454 24.9704 13.5396 25.0321C13.3038 23.2742 13.488 21.4854 14.0773 19.8125C14.6666 18.1396 15.6441 16.6302 16.9296 15.4081C18.2289 14.1665 19.7869 13.2278 21.4917 12.6594C23.1966 12.0909 25.0062 11.9068 26.7906 12.1201L22.4256 15.3301C21.8671 15.7359 21.3967 16.2507 21.0427 16.8434C20.6887 17.4361 20.4584 18.0944 20.3659 18.7785C20.2734 19.4626 20.3205 20.1584 20.5043 20.8239C20.6882 21.4893 21.005 22.1105 21.4356 22.6501C22.307 23.7415 23.5653 24.4552 24.9492 24.6429C26.333 24.8306 27.736 24.4779 28.8666 23.6581L33.5946 20.1871L38.7576 20.1841ZM24.2016 17.7451L31.9776 12.0361H33.5856C33.7327 12.0347 33.8798 12.0387 34.0266 12.0481H37.7526C41.9646 12.0481 45.8076 14.2831 47.7666 17.8141C49.0926 20.2021 49.4406 22.9771 48.7476 25.5961L48.7386 25.6261L40.4586 17.6251C40.178 17.3436 39.7971 17.185 39.3996 17.1841H33.0996C32.7812 17.1847 32.4713 17.2867 32.2146 17.4751L27.0906 21.2371C26.5871 21.5968 25.9652 21.7509 25.352 21.6678C24.7388 21.5847 24.1803 21.2708 23.7906 20.7901C23.6092 20.5667 23.4754 20.3084 23.3976 20.0313C23.3197 19.7542 23.2995 19.4641 23.338 19.1788C23.3765 18.8935 23.4729 18.6192 23.6215 18.3726C23.77 18.1261 23.9674 17.9125 24.2016 17.7451ZM25.5276 43.5751L25.5576 43.5451L27.8916 41.2951L27.9186 41.2711C28.2714 40.9513 28.7318 40.7765 29.2079 40.7815C29.684 40.7865 30.1407 40.971 30.4866 41.2981C30.6563 41.459 30.7914 41.6528 30.8837 41.8676C30.9761 42.0824 31.0237 42.3138 31.0237 42.5476C31.0237 42.7815 30.9761 43.0128 30.8837 43.2277C30.7914 43.4425 30.6563 43.6362 30.4866 43.7971L28.1496 46.0471C27.7988 46.3784 27.3346 46.5629 26.8521 46.5629C26.3696 46.5629 25.9054 46.3784 25.5546 46.0471C25.3872 45.8886 25.2533 45.6981 25.1608 45.4869C25.0684 45.2757 25.0194 45.048 25.0166 44.8175C25.0138 44.5869 25.0573 44.3582 25.1446 44.1448C25.2318 43.9314 25.3641 43.7377 25.5276 43.5751ZM25.7556 39.1891L25.7256 39.2161L23.3916 41.4661L23.3616 41.4931C23.0087 41.8117 22.5486 41.9855 22.0732 41.9799C21.5979 41.9743 21.142 41.7898 20.7966 41.4631C20.6289 41.3039 20.4949 41.1126 20.4027 40.9005C20.3105 40.6884 20.2619 40.4599 20.26 40.2286C20.258 39.9973 20.3027 39.768 20.3913 39.5544C20.4799 39.3408 20.6106 39.1471 20.7756 38.9851L20.7966 38.9641L23.1306 36.7141L23.1516 36.6931C23.504 36.3708 23.9652 36.1938 24.4427 36.1977C24.9203 36.2016 25.3786 36.3861 25.7256 36.7141C25.8935 36.8727 26.0278 37.0634 26.1205 37.2749C26.2132 37.4864 26.2624 37.7144 26.2652 37.9453C26.268 38.1762 26.2244 38.4053 26.1368 38.619C26.0493 38.8327 25.9196 39.0266 25.7556 39.1891ZM20.9706 34.6321L18.6336 36.8821L18.6126 36.9031C18.2603 37.2255 17.799 37.4025 17.3215 37.3986C16.844 37.3947 16.3856 37.2102 16.0386 36.8821C15.869 36.7212 15.7338 36.5275 15.6415 36.3127C15.5492 36.0978 15.5015 35.8665 15.5015 35.6326C15.5015 35.3988 15.5492 35.1674 15.6415 34.9526C15.7338 34.7378 15.869 34.544 16.0386 34.3831L18.3726 32.1331C18.7236 31.801 19.1884 31.616 19.6716 31.616C20.1548 31.616 20.6196 31.801 20.9706 32.1331C21.1388 32.2924 21.2732 32.4839 21.3657 32.6963C21.4582 32.9087 21.5068 33.1375 21.5088 33.3692C21.5108 33.6008 21.466 33.8304 21.3771 34.0444C21.2882 34.2583 21.1571 34.4521 20.9916 34.6141L20.9706 34.6321ZM15.2526 30.9751L12.9186 33.2251C12.5676 33.5572 12.1028 33.7423 11.6196 33.7423C11.1364 33.7423 10.6716 33.5572 10.3206 33.2251C10.1505 33.0642 10.015 32.8703 9.92234 32.6552C9.82972 32.4401 9.78195 32.2083 9.78195 31.9741C9.78195 31.7399 9.82972 31.5082 9.92234 31.2931C10.015 31.078 10.1505 30.8841 10.3206 30.7231L12.6576 28.4731C13.0084 28.1419 13.4726 27.9574 13.9551 27.9574C14.4376 27.9574 14.9018 28.1419 15.2526 28.4731C15.4228 28.6341 15.5583 28.828 15.6509 29.0431C15.7435 29.2582 15.7913 29.4899 15.7913 29.7241C15.7913 29.9583 15.7435 30.1901 15.6509 30.4052C15.5583 30.6203 15.4228 30.8142 15.2526 30.9751Z" fill="#0B0500"/>
</svg>
