<?xml version="1.0" encoding="UTF-8"?>
<svg id="sq_logos" data-name="sq logos" xmlns="http://www.w3.org/2000/svg" xmlns:xlink="http://www.w3.org/1999/xlink" viewBox="0 0 2000 2000">
  <defs>
    <style>
      .cls-1 {
        fill: url(#linear-gradient-2);
      }

      .cls-2 {
        fill: #628b48;
      }

      .cls-3 {
        fill: #0b0500;
      }

      .cls-4 {
        fill: url(#linear-gradient);
      }
    </style>
    <linearGradient id="linear-gradient" x1="212.23" y1="1133.28" x2="364.34" y2="893.7" gradientUnits="userSpaceOnUse">
      <stop offset="0" stop-color="#628b48"/>
      <stop offset="1" stop-color="#eca72c"/>
    </linearGradient>
    <linearGradient id="linear-gradient-2" x1="200.31" y1="1134.58" x2="437.18" y2="1110.47" gradientUnits="userSpaceOnUse">
      <stop offset="0" stop-color="#628b48"/>
      <stop offset="1" stop-color="#eca72c"/>
    </linearGradient>
  </defs>
  <path class="cls-2" d="M1203.3,1012.33v107.44h-53.19v-107.77c0-30.63-24.64-55.92-55.26-55.91-30.68.01-55.23,24.55-55.23,55.24v108.44h-53.19v-286.44h0c29.38,0,53.19,23.82,53.19,53.19v31.56c16.05-9.56,34.78-15.1,54.75-15.19,59.91-.27,108.93,49.53,108.93,109.44Z"/>
  <path class="cls-2" d="M943.97,973.74c-16.74-16.59-37.31-24.99-61.14-24.99h-62.74c-8.11,0-15.14-2.92-20.89-8.67-5.75-5.75-8.67-12.86-8.67-21.13s2.91-15.38,8.67-21.13c5.75-5.75,12.78-8.67,20.89-8.67h88.85c31.65,0,57.69-24.54,60.07-55.6l-148.67-.23c-23.67,0-44.08,8.4-60.65,24.98-16.58,16.57-24.98,36.98-24.98,60.65s8.44,43.83,25.09,60.4c16.65,16.58,37.02,24.98,60.54,24.98h63.46c8.1,0,15.15,2.91,20.99,8.64,5.84,5.76,8.81,12.88,8.81,21.16s-2.97,15.41-8.82,21.16c-5.82,5.73-12.88,8.64-20.98,8.64h-88.84c-31.66,0-57.69,24.54-60.07,55.6l148.91.23c23.51,0,43.84-8.4,60.41-24.98,16.57-16.57,24.98-36.98,24.98-60.65s-8.48-43.82-25.2-60.39Z"/>
  <path class="cls-2" d="M969.17,1034.14c0,23.67-8.4,44.08-24.98,60.65-16.57,16.58-36.9,24.98-60.41,24.98l-148.91-.23c2.38-31.06,28.41-55.6,60.07-55.6h88.84c8.1,0,15.16-2.91,20.98-8.64,5.85-5.75,8.82-12.87,8.82-21.16s-2.97-15.39-8.81-21.16c-5.83-5.73-12.89-8.64-20.99-8.64h-63.46c-23.52,0-43.89-8.4-60.54-24.98-16.65-16.57-25.09-36.89-25.09-60.4s8.4-44.08,24.98-60.65c16.57-16.57,36.98-24.98,60.65-24.98l148.67.23c-2.38,31.05-28.41,55.6-60.07,55.6h-88.85c-8.11,0-15.14,2.92-20.89,8.67-5.75,5.75-8.67,12.86-8.67,21.13s2.91,15.39,8.67,21.13c5.75,5.75,12.78,8.67,20.89,8.67h62.74c23.84,0,44.41,8.41,61.14,24.99,16.73,16.57,25.2,36.89,25.2,60.39Z"/>
  <path class="cls-2" d="M1383.31,1011.31c0-30.69-24.55-55.24-55.24-55.24s-55.24,24.55-55.24,55.24,24.55,55.24,55.24,55.24h30.69v53.19h-30.69c-59.74,0-108.43-48.69-108.43-108.43s48.69-108.43,108.43-108.43,108.42,48.69,108.42,108.43v108.43h-53.19v-108.43Z"/>
  <path class="cls-2" d="M1452.86,1011.31c0-59.74,48.69-108.43,108.43-108.43h30.69v53.19h-30.69c-30.69,0-55.24,24.55-55.24,55.24v108.43h-53.19v-108.43Z"/>
  <path class="cls-2" d="M1712.67,1011.31l112.52,108.42h-74.88l-88.78-85.25v85.25h-53.19v-286.41c14.68,0,27.98,5.95,37.61,15.58,9.63,9.63,15.58,22.92,15.58,37.61v101.62l88.78-85.25h74.88l-112.52,108.42Z"/>
  <path class="cls-4" d="M535.86,923.43c-4.29,1.66-8.53,3.47-12.86,4.99-25.82,9.06-52.1,16.04-79.75,14.19-28.45-1.88-56.36-7.47-84.01-14.21-14.33-3.52-28.57-7.37-42.85-11.06-4-1.04-8.02-2.05-12.04-3.03-3.28-.82-6.55-1.59-9.85-2.36-5.71-1.33-11.42-2.17-17.05-2.55,13.8-7.76,28.85-11.27,28.85-11.27-32.78.51-61.4,11.75-77.7,19.77-.19.07-.39.17-.55.27-4.31,1.95-8.48,4.22-12.48,6.82-.12.07-.24.14-.36.22-.19.1-.38.24-.58.36-.31.22-.48.31-.48.31-14.88,9.92-27.29,23.99-35.72,41.5-16.02,33.26-22.54,68.21-15.99,105.04.51,2.87,1.2,5.71,1.83,8.57-5.13-7.03-9.61-14.26-13.42-21.68-11.35-22.26-16.45-46.27-13.87-71.97,5.85-58.26,34.56-102.08,86.98-129.46,7.66-4.02,15.44-7.9,23.43-11.18,17.13-6.98,30.95-17.53,41.98-32.64,12.19-16.72,26.06-32.13,43.45-43.81,10-6.7,20.83-11.08,33.87-12.04-1.61,3.81-3.03,7.06-4.41,10.36-7.95,18.81-14.52,37.98-15.42,58.63-.19,4.19.19,8.48.8,12.65,1.52,10.38,6.74,18.33,15.92,23.75,30.06,17.73,61.83,31.72,94.92,42.73,20.5,6.82,41.33,12.31,62.86,14.77,4.7.53,9.44.87,14.5,2.36Z"/>
  <path class="cls-2" d="M299.84,1131.2c-129.08,4.65-121.2-131.39-121.2-131.39-.12.1-.19.24-.24.41-1.47,5.95-5.95,24.47-5.95,49.38-.02,71.08,58.17,134.5,126.81,139.29.51.02,1.01.02,1.49.1,49.04,5.69,92.28-2.31,139.39,52.82-14.14-62.19-68.19-106.85-140.3-110.6Z"/>
  <path class="cls-1" d="M644.25,960.09c-22.43,2.55-44.83,6.17-66.72,10.74-29.43,6.12-91.46,26.4-140.16,51.35-4.12,2.1-8.72,3.01-13.32,2.55-3.2-.34-6.29-1.28-9.08-2.84-3.2-1.78-8.26-4.46-14.93-7.39-2.41-1.06-5.03-2.17-7.85-3.28-29.26-11.51-79.77-23.92-137.2-5.88-2.72.82-5.44,1.76-8.19,2.75-.99.36-.89,1.83.14,2.02,3.88.7,10.45,2,18.52,4,28.25,6.91,74.64,22.28,85.55,50-1.01.53-2.02,1.06-3.06,1.57-4.48,2.24-9.1,4.19-13.87,5.85-12.19,4.26-25.31,6.58-38.95,6.58-24.64,0-47.5-7.52-66.43-20.4-15.05-10.26-30.32-27.53-39.31-43.45-.05,1.28,0,104.25,102.99,107.93,6.86.24,118.46-9.61,159.31,116.1,38.2-12.11,79.25-30.88,114.41-57.13,19.37-14.45,47.28-40.99,56.77-64.7-18.62-3.64-31.12.7-48,3.88,5.88-16.84,13.39-26.13,28.98-33.26,8.12-3.76,17.08-5.73,25.44-8.96,2.24-.8,4.79-3.08,5.47-5.23,7.25-21.99,25-71.8,27.89-93.19,1.9-14.14-4.24-21.17-18.4-19.61ZM603.74,1004.24c-14.81,5.44-26.13-.19-26.13-.19,13.3-4.72,14.02-8.29,25.94-12.43,14.98-5.23,15.01,7.18.19,12.62Z"/>
  <path class="cls-3" d="M743.94,1158.12v11.29h15.17v7.16h-15.17v11.94h17.1v7.36h-26.14v-45.12h26.14v7.36h-17.1Z"/>
  <path class="cls-3" d="M809.65,1169.02v7.62h-27.37v-7.62h27.37Z"/>
  <path class="cls-3" d="M833.5,1161.38c2-3.51,4.73-6.24,8.2-8.2,3.46-1.96,7.35-2.94,11.65-2.94,5.03,0,9.44,1.29,13.23,3.87,3.79,2.58,6.43,6.15,7.94,10.71h-10.39c-1.03-2.15-2.48-3.76-4.36-4.84-1.87-1.08-4.03-1.61-6.49-1.61-2.62,0-4.96.61-7,1.84-2.04,1.23-3.64,2.96-4.78,5.2-1.14,2.24-1.71,4.86-1.71,7.87s.57,5.58,1.71,7.84c1.14,2.26,2.73,4,4.78,5.23,2.04,1.23,4.38,1.84,7,1.84,2.45,0,4.61-.55,6.49-1.65,1.87-1.1,3.32-2.72,4.36-4.87h10.39c-1.51,4.6-4.14,8.19-7.91,10.75-3.77,2.56-8.19,3.84-13.26,3.84-4.3,0-8.19-.98-11.65-2.94-3.46-1.96-6.2-4.68-8.2-8.16-2-3.49-3-7.44-3-11.88s1-8.4,3-11.91Z"/>
  <path class="cls-3" d="M901.75,1194.17c-2.75-1.53-4.92-3.69-6.49-6.49-1.57-2.8-2.36-6.02-2.36-9.68s.81-6.88,2.42-9.68c1.61-2.8,3.82-4.96,6.62-6.49,2.8-1.53,5.92-2.29,9.36-2.29s6.56.76,9.36,2.29c2.8,1.53,5,3.69,6.62,6.49,1.61,2.8,2.42,6.03,2.42,9.68s-.83,6.88-2.48,9.68c-1.66,2.8-3.9,4.96-6.71,6.49-2.82,1.53-5.97,2.29-9.46,2.29s-6.54-.76-9.29-2.29ZM915.66,1187.39c1.44-.8,2.59-1.99,3.45-3.58.86-1.59,1.29-3.53,1.29-5.81,0-3.4-.89-6.01-2.68-7.84-1.79-1.83-3.97-2.74-6.55-2.74s-4.74.91-6.49,2.74c-1.74,1.83-2.61,4.44-2.61,7.84s.85,6.01,2.55,7.84c1.7,1.83,3.84,2.74,6.42,2.74,1.63,0,3.17-.4,4.61-1.19Z"/>
  <path class="cls-3" d="M1004.28,1163.64c2.69,2.69,4.03,6.44,4.03,11.26v20.98h-9.04v-19.75c0-2.8-.71-4.94-2.13-6.42-1.42-1.48-3.36-2.23-5.81-2.23s-4.4.74-5.84,2.23c-1.44,1.48-2.16,3.63-2.16,6.42v19.75h-9.04v-19.75c0-2.8-.71-4.94-2.13-6.42-1.42-1.48-3.36-2.23-5.81-2.23s-4.46.74-5.91,2.23c-1.44,1.48-2.16,3.63-2.16,6.42v19.75h-9.04v-35.76h9.04v4.32c1.16-1.51,2.66-2.69,4.49-3.55,1.83-.86,3.84-1.29,6.04-1.29,2.8,0,5.29.59,7.49,1.77,2.19,1.18,3.89,2.87,5.1,5.07,1.16-2.07,2.85-3.72,5.07-4.97,2.22-1.25,4.61-1.87,7.2-1.87,4.39,0,7.93,1.35,10.62,4.03Z"/>
  <path class="cls-3" d="M1084.83,1163.64c2.69,2.69,4.03,6.44,4.03,11.26v20.98h-9.04v-19.75c0-2.8-.71-4.94-2.13-6.42-1.42-1.48-3.36-2.23-5.81-2.23s-4.4.74-5.84,2.23c-1.44,1.48-2.16,3.63-2.16,6.42v19.75h-9.04v-19.75c0-2.8-.71-4.94-2.13-6.42-1.42-1.48-3.36-2.23-5.81-2.23s-4.46.74-5.91,2.23c-1.44,1.48-2.16,3.63-2.16,6.42v19.75h-9.04v-35.76h9.04v4.32c1.16-1.51,2.66-2.69,4.49-3.55,1.83-.86,3.84-1.29,6.04-1.29,2.8,0,5.29.59,7.49,1.77,2.19,1.18,3.89,2.87,5.1,5.07,1.16-2.07,2.85-3.72,5.07-4.97,2.22-1.25,4.61-1.87,7.2-1.87,4.39,0,7.93,1.35,10.62,4.03Z"/>
  <path class="cls-3" d="M1143.34,1180.71h-26.14c.21,2.58,1.12,4.6,2.71,6.07,1.59,1.46,3.55,2.19,5.87,2.19,3.36,0,5.74-1.44,7.16-4.32h9.75c-1.03,3.44-3.01,6.27-5.94,8.49-2.93,2.22-6.52,3.32-10.78,3.32-3.44,0-6.53-.76-9.26-2.29-2.73-1.53-4.86-3.69-6.39-6.49-1.53-2.8-2.29-6.02-2.29-9.68s.75-6.95,2.26-9.75c1.51-2.8,3.61-4.95,6.33-6.45,2.71-1.51,5.83-2.26,9.36-2.26s6.44.73,9.13,2.19c2.69,1.46,4.78,3.54,6.26,6.23,1.48,2.69,2.23,5.78,2.23,9.26,0,1.29-.09,2.45-.26,3.49ZM1134.24,1174.64c-.04-2.32-.88-4.18-2.52-5.58-1.64-1.4-3.64-2.1-6-2.1-2.24,0-4.12.68-5.65,2.03-1.53,1.36-2.46,3.24-2.81,5.65h16.98Z"/>
  <path class="cls-3" d="M1176.68,1161.22c1.87-1.08,4.01-1.61,6.42-1.61v9.49h-2.39c-2.84,0-4.98.67-6.42,2-1.44,1.33-2.16,3.66-2.16,6.97v17.81h-9.04v-35.76h9.04v5.55c1.16-1.89,2.68-3.38,4.55-4.45Z"/>
  <path class="cls-3" d="M1202.01,1168.28c1.51-2.78,3.59-4.93,6.26-6.45,2.67-1.53,5.72-2.29,9.17-2.29,4.43,0,8.1,1.11,11,3.32,2.9,2.22,4.85,5.32,5.84,9.33h-9.75c-.52-1.55-1.39-2.76-2.61-3.65-1.23-.88-2.74-1.32-4.55-1.32-2.58,0-4.63.94-6.13,2.81-1.51,1.87-2.26,4.53-2.26,7.97s.75,6.04,2.26,7.91c1.51,1.87,3.55,2.81,6.13,2.81,3.66,0,6.04-1.63,7.16-4.91h9.75c-.99,3.87-2.95,6.95-5.87,9.23-2.93,2.28-6.58,3.42-10.97,3.42-3.44,0-6.5-.76-9.17-2.29-2.67-1.53-4.75-3.68-6.26-6.45-1.51-2.78-2.26-6.01-2.26-9.71s.75-6.94,2.26-9.71Z"/>
  <path class="cls-3" d="M1286.82,1180.71h-26.14c.21,2.58,1.12,4.6,2.71,6.07,1.59,1.46,3.55,2.19,5.87,2.19,3.36,0,5.74-1.44,7.16-4.32h9.75c-1.03,3.44-3.01,6.27-5.94,8.49-2.93,2.22-6.52,3.32-10.78,3.32-3.44,0-6.53-.76-9.26-2.29-2.73-1.53-4.86-3.69-6.39-6.49-1.53-2.8-2.29-6.02-2.29-9.68s.75-6.95,2.26-9.75c1.51-2.8,3.61-4.95,6.33-6.45,2.71-1.51,5.83-2.26,9.36-2.26s6.44.73,9.13,2.19c2.69,1.46,4.78,3.54,6.26,6.23,1.48,2.69,2.23,5.78,2.23,9.26,0,1.29-.09,2.45-.26,3.49ZM1277.72,1174.64c-.04-2.32-.88-4.18-2.52-5.58-1.64-1.4-3.64-2.1-6-2.1-2.24,0-4.12.68-5.65,2.03-1.53,1.36-2.46,3.24-2.81,5.65h16.98Z"/>
  <path class="cls-3" d="M1369.5,1195.88l-4.91-4.84c-4.17,3.74-9.27,5.62-15.3,5.62-3.31,0-6.23-.57-8.75-1.71-2.52-1.14-4.46-2.75-5.84-4.84-1.38-2.09-2.07-4.51-2.07-7.26,0-2.97.84-5.64,2.52-8,1.68-2.37,4.15-4.28,7.42-5.74-1.16-1.42-2-2.79-2.52-4.1-.52-1.31-.77-2.72-.77-4.23,0-2.07.54-3.93,1.61-5.58,1.08-1.66,2.61-2.96,4.61-3.91,2-.95,4.33-1.42,7-1.42s5.03.52,6.97,1.55c1.94,1.03,3.38,2.41,4.32,4.13.95,1.72,1.36,3.64,1.23,5.74h-8.78c.04-1.42-.3-2.51-1.03-3.26-.73-.75-1.72-1.13-2.97-1.13s-2.21.35-3,1.07c-.8.71-1.19,1.62-1.19,2.74s.32,2.14.97,3.19c.65,1.06,1.7,2.36,3.16,3.91l11.36,11.23c.09-.09.15-.17.19-.26.04-.09.09-.17.13-.26l3.68-6.13h9.42l-4.52,7.94c-.86,1.68-1.79,3.27-2.78,4.78l10.91,10.78h-11.1ZM1358.92,1185.42l-11.1-10.97c-4.17,1.85-6.26,4.48-6.26,7.87,0,1.94.73,3.56,2.19,4.87,1.46,1.31,3.4,1.97,5.81,1.97,3.53,0,6.65-1.25,9.36-3.74Z"/>
  <path class="cls-3" d="M1433.3,1194.71c-2.52-1.08-4.51-2.62-5.97-4.65-1.46-2.02-2.22-4.41-2.26-7.16h9.68c.13,1.85.79,3.31,1.97,4.39,1.18,1.08,2.81,1.61,4.87,1.61s3.76-.51,4.97-1.52c1.2-1.01,1.81-2.33,1.81-3.97,0-1.33-.41-2.43-1.23-3.29-.82-.86-1.84-1.54-3.07-2.03-1.23-.49-2.92-1.04-5.07-1.65-2.93-.86-5.3-1.71-7.13-2.55-1.83-.84-3.4-2.11-4.71-3.81-1.31-1.7-1.97-3.97-1.97-6.81,0-2.67.67-4.99,2-6.97,1.33-1.98,3.2-3.5,5.62-4.55,2.41-1.05,5.16-1.58,8.26-1.58,4.65,0,8.42,1.13,11.33,3.39,2.9,2.26,4.51,5.41,4.81,9.46h-9.94c-.09-1.55-.74-2.83-1.97-3.84-1.23-1.01-2.85-1.52-4.87-1.52-1.76,0-3.17.45-4.23,1.36-1.05.9-1.58,2.22-1.58,3.94,0,1.21.4,2.21,1.19,3,.8.8,1.79,1.44,2.97,1.94,1.18.5,2.85,1.07,5,1.71,2.93.86,5.31,1.72,7.16,2.58,1.85.86,3.44,2.15,4.78,3.87,1.33,1.72,2,3.98,2,6.78,0,2.41-.62,4.65-1.87,6.71-1.25,2.07-3.08,3.71-5.49,4.94-2.41,1.23-5.27,1.84-8.58,1.84-3.14,0-5.97-.54-8.49-1.61Z"/>
  <path class="cls-3" d="M1485.04,1194.17c-2.75-1.53-4.92-3.69-6.49-6.49-1.57-2.8-2.36-6.02-2.36-9.68s.81-6.88,2.42-9.68c1.61-2.8,3.82-4.96,6.62-6.49,2.8-1.53,5.92-2.29,9.36-2.29s6.56.76,9.36,2.29c2.8,1.53,5,3.69,6.62,6.49,1.61,2.8,2.42,6.03,2.42,9.68s-.83,6.88-2.48,9.68c-1.66,2.8-3.9,4.96-6.71,6.49-2.82,1.53-5.97,2.29-9.46,2.29s-6.54-.76-9.29-2.29ZM1498.95,1187.39c1.44-.8,2.59-1.99,3.45-3.58.86-1.59,1.29-3.53,1.29-5.81,0-3.4-.89-6.01-2.68-7.84-1.79-1.83-3.97-2.74-6.55-2.74s-4.74.91-6.49,2.74c-1.74,1.83-2.61,4.44-2.61,7.84s.85,6.01,2.55,7.84c1.7,1.83,3.84,2.74,6.42,2.74,1.63,0,3.17-.4,4.61-1.19Z"/>
  <path class="cls-3" d="M1541.58,1148.11v47.76h-9.04v-47.76h9.04Z"/>
  <path class="cls-3" d="M1597.15,1160.12v35.76h-9.1v-4.52c-1.16,1.55-2.68,2.77-4.55,3.65s-3.91,1.32-6.1,1.32c-2.8,0-5.27-.59-7.42-1.77-2.15-1.18-3.84-2.93-5.07-5.23-1.23-2.3-1.84-5.04-1.84-8.23v-20.98h9.04v19.69c0,2.84.71,5.02,2.13,6.55,1.42,1.53,3.36,2.29,5.81,2.29s4.45-.76,5.87-2.29c1.42-1.53,2.13-3.71,2.13-6.55v-19.69h9.1Z"/>
  <path class="cls-3" d="M1629.49,1167.54v17.3c0,1.21.29,2.08.87,2.61.58.54,1.56.81,2.94.81h4.2v7.62h-5.68c-7.62,0-11.42-3.7-11.42-11.1v-17.23h-4.26v-7.42h4.26v-8.84h9.1v8.84h8v7.42h-8Z"/>
  <path class="cls-3" d="M1657.53,1154.34c-1.06-1.01-1.58-2.27-1.58-3.78s.53-2.76,1.58-3.78c1.05-1.01,2.38-1.52,3.97-1.52s2.91.51,3.97,1.52c1.05,1.01,1.58,2.27,1.58,3.78s-.53,2.77-1.58,3.78c-1.05,1.01-2.38,1.52-3.97,1.52s-2.92-.51-3.97-1.52ZM1665.95,1160.12v35.76h-9.04v-35.76h9.04Z"/>
  <path class="cls-3" d="M1694.35,1194.17c-2.75-1.53-4.92-3.69-6.49-6.49-1.57-2.8-2.36-6.02-2.36-9.68s.81-6.88,2.42-9.68c1.61-2.8,3.82-4.96,6.62-6.49,2.8-1.53,5.92-2.29,9.36-2.29s6.56.76,9.36,2.29c2.8,1.53,5,3.69,6.62,6.49,1.61,2.8,2.42,6.03,2.42,9.68s-.83,6.88-2.48,9.68c-1.66,2.8-3.9,4.96-6.71,6.49-2.82,1.53-5.97,2.29-9.46,2.29s-6.54-.76-9.29-2.29ZM1708.26,1187.39c1.44-.8,2.59-1.99,3.45-3.58.86-1.59,1.29-3.53,1.29-5.81,0-3.4-.89-6.01-2.68-7.84-1.79-1.83-3.97-2.74-6.55-2.74s-4.74.91-6.49,2.74c-1.74,1.83-2.61,4.44-2.61,7.84s.85,6.01,2.55,7.84c1.7,1.83,3.84,2.74,6.42,2.74,1.63,0,3.17-.4,4.61-1.19Z"/>
  <path class="cls-3" d="M1772,1163.64c2.62,2.69,3.94,6.44,3.94,11.26v20.98h-9.04v-19.75c0-2.84-.71-5.02-2.13-6.55-1.42-1.53-3.36-2.29-5.81-2.29s-4.46.76-5.91,2.29c-1.44,1.53-2.16,3.71-2.16,6.55v19.75h-9.04v-35.76h9.04v4.45c1.2-1.55,2.74-2.76,4.61-3.65,1.87-.88,3.93-1.32,6.16-1.32,4.26,0,7.7,1.35,10.33,4.03Z"/>
  <path class="cls-3" d="M1803.24,1194.88c-2.32-1.05-4.16-2.48-5.52-4.29-1.36-1.81-2.1-3.81-2.23-6h9.1c.17,1.38.85,2.52,2.03,3.42,1.18.9,2.66,1.36,4.42,1.36s3.07-.34,4.03-1.03c.97-.69,1.45-1.57,1.45-2.65,0-1.16-.59-2.03-1.78-2.61-1.18-.58-3.07-1.22-5.65-1.9-2.67-.65-4.85-1.31-6.55-2-1.7-.69-3.16-1.74-4.39-3.16-1.23-1.42-1.84-3.33-1.84-5.74,0-1.98.57-3.79,1.71-5.42,1.14-1.63,2.77-2.93,4.9-3.87,2.13-.95,4.64-1.42,7.52-1.42,4.26,0,7.66,1.07,10.2,3.2,2.54,2.13,3.94,5,4.2,8.62h-8.65c-.13-1.42-.72-2.55-1.77-3.39-1.06-.84-2.46-1.26-4.23-1.26-1.64,0-2.89.3-3.78.9-.88.6-1.32,1.44-1.32,2.52,0,1.2.6,2.12,1.81,2.74,1.2.62,3.08,1.26,5.62,1.9,2.58.65,4.71,1.31,6.39,2,1.68.69,3.13,1.75,4.36,3.19,1.23,1.44,1.86,3.35,1.9,5.71,0,2.07-.57,3.92-1.71,5.55-1.14,1.64-2.77,2.92-4.9,3.84-2.13.93-4.62,1.39-7.46,1.39s-5.55-.53-7.87-1.58Z"/>
</svg>