<svg width="1248" height="1138" viewBox="0 0 1248 1138" fill="none" xmlns="http://www.w3.org/2000/svg">
<g clip-path="url(#clip0_963_377)">
<path d="M946.69 391.6C936.53 395.54 926.49 399.82 916.22 403.41C855.05 424.86 792.8 441.41 727.29 437.02C659.9 432.57 593.77 419.33 528.26 403.35C494.31 395.02 460.58 385.89 426.75 377.16C417.28 374.71 407.75 372.31 398.22 369.97C390.46 368.03 382.7 366.2 374.88 364.38C361.36 361.24 347.83 359.24 334.48 358.33C367.17 339.96 402.84 331.62 402.84 331.62C325.18 332.82 257.39 359.47 218.76 378.47C218.3 378.64 217.85 378.87 217.45 379.1C207.24 383.72 197.36 389.09 187.89 395.25C187.61 395.42 187.32 395.59 187.03 395.77C186.57 396 186.12 396.34 185.66 396.63C184.92 397.14 184.52 397.37 184.52 397.37C149.26 420.88 119.87 454.2 99.9 495.69C61.95 574.49 46.4901 657.29 62.0101 744.53C63.2101 751.32 64.86 758.05 66.35 764.84C54.2 748.18 43.58 731.06 34.57 713.48C7.69005 660.76 -4.39995 603.87 1.70005 542.98C15.5701 404.95 83.58 301.16 207.75 236.28C225.89 226.75 244.32 217.56 263.27 209.8C303.84 193.25 336.59 168.26 362.73 132.48C391.6 92.88 424.47 56.36 465.67 28.69C489.35 12.83 515.03 2.44003 545.9 0.160034C542.08 9.18003 538.71 16.88 535.46 24.7C516.63 69.27 501.05 114.69 498.94 163.59C498.48 173.52 499.4 183.68 500.82 193.55C504.41 218.14 516.8 236.98 538.54 249.81C609.75 291.81 685.02 324.96 763.42 351.04C811.98 367.19 861.34 380.2 912.35 386.02C923.48 387.27 934.72 388.07 946.7 391.61L946.69 391.6Z" fill="url(#paint0_linear_963_377)"/>
<path d="M387.54 883.81C81.7502 894.82 100.41 572.54 100.41 572.54C100.13 572.77 99.9603 573.11 99.8403 573.51C96.3603 587.6 85.7403 631.48 85.7403 690.49C85.6803 858.88 223.54 1009.12 386.17 1020.48C387.37 1020.54 388.57 1020.54 389.71 1020.71C505.89 1034.18 608.31 1015.23 719.92 1145.85C686.42 998.52 558.38 892.73 387.54 883.83V883.81Z" fill="#628B48"/>
<path d="M1203.46 478.45C1150.33 484.5 1097.27 493.06 1045.4 503.9C975.67 518.39 828.74 566.44 713.36 625.55C703.6 630.51 692.7 632.68 681.8 631.6C674.21 630.8 666.91 628.57 660.29 624.87C652.7 620.65 640.72 614.31 624.91 607.35C619.2 604.84 612.98 602.21 606.31 599.59C536.98 572.32 417.32 542.93 281.29 585.67C274.84 587.61 268.4 589.84 261.89 592.18C259.55 593.04 259.78 596.52 262.23 596.97C271.42 598.62 286.99 601.71 306.11 606.44C373.04 622.82 482.94 659.22 508.79 724.9C506.39 726.16 504 727.41 501.54 728.61C490.93 733.91 479.97 738.54 468.67 742.47C439.8 752.57 408.7 758.05 376.4 758.05C318.03 758.05 263.88 740.25 219.02 709.72C183.36 685.41 147.18 644.5 125.9 606.78C125.79 609.8 125.9 853.74 369.9 862.47C386.16 863.04 650.53 839.7 747.3 1137.5C837.8 1108.8 935.03 1064.35 1018.34 1002.15C1064.22 967.91 1130.35 905.03 1152.84 848.88C1108.73 840.27 1079.12 850.53 1039.12 858.07C1053.04 818.19 1070.85 796.16 1107.76 779.27C1126.99 770.37 1148.22 765.69 1168.02 758.04C1173.33 756.16 1179.38 750.74 1180.97 745.66C1198.15 693.56 1240.2 575.56 1247.05 524.89C1251.56 491.39 1237.01 474.73 1203.46 478.44V478.45ZM1107.49 583.04C1072.4 595.94 1045.58 582.58 1045.58 582.58C1077.08 571.4 1078.79 562.95 1107.04 553.14C1142.53 540.76 1142.59 570.14 1107.5 583.04H1107.49Z" fill="url(#paint1_linear_963_377)"/>
</g>
<defs>
<linearGradient id="paint0_linear_963_377" x1="179.99" y1="888.74" x2="540.35" y2="321.17" gradientUnits="userSpaceOnUse">
<stop stop-color="#628B48"/>
<stop offset="1" stop-color="#ECA72C"/>
</linearGradient>
<linearGradient id="paint1_linear_963_377" x1="151.74" y1="891.82" x2="712.9" y2="834.7" gradientUnits="userSpaceOnUse">
<stop stop-color="#628B48"/>
<stop offset="1" stop-color="#ECA72C"/>
</linearGradient>
<clipPath id="clip0_963_377">
<rect width="1248" height="1138" fill="white"/>
</clipPath>
</defs>
</svg>
