<?xml version="1.0" encoding="UTF-8"?>
<svg id="sq_logos" data-name="sq logos" xmlns="http://www.w3.org/2000/svg" xmlns:xlink="http://www.w3.org/1999/xlink" viewBox="0 0 3840 2160">
  <defs>
    <style>
      .cls-1 {
        fill: url(#linear-gradient-2);
      }

      .cls-2 {
        fill: #628b48;
      }

      .cls-3 {
        fill: #fff;
      }

      .cls-4 {
        fill: #0b0500;
      }

      .cls-5 {
        fill: url(#linear-gradient);
      }
    </style>
    <linearGradient id="linear-gradient" x1="662.48" y1="1298.08" x2="911.38" y2="906.06" gradientUnits="userSpaceOnUse">
      <stop offset="0" stop-color="#628b48"/>
      <stop offset="1" stop-color="#eca72c"/>
    </linearGradient>
    <linearGradient id="linear-gradient-2" x1="642.97" y1="1300.21" x2="1030.56" y2="1260.75" gradientUnits="userSpaceOnUse">
      <stop offset="0" stop-color="#628b48"/>
      <stop offset="1" stop-color="#eca72c"/>
    </linearGradient>
  </defs>
  <rect class="cls-3" width="3840" height="2160"/>
  <path class="cls-2" d="M2284.16,1100.18v175.8h-87.04v-176.35c0-50.11-40.31-91.5-90.43-91.48-50.19.02-90.36,40.18-90.36,90.4v177.44h-87.04v-468.71h0c48.07,0,87.04,38.97,87.04,87.04v51.64c26.27-15.65,56.91-24.7,89.58-24.85,98.04-.44,178.25,81.04,178.25,179.08Z"/>
  <path class="cls-2" d="M1859.82,1037.04c-27.39-27.14-61.04-40.9-100.05-40.9h-102.67c-13.27,0-24.78-4.78-34.18-14.18-9.41-9.4-14.18-21.04-14.18-34.58s4.77-25.16,14.18-34.57c9.41-9.41,20.92-14.19,34.18-14.19h145.38c51.79,0,94.4-40.16,98.29-90.97l-243.27-.38c-38.73,0-72.12,13.75-99.24,40.87-27.13,27.12-40.88,60.51-40.88,99.24s13.82,71.72,41.06,98.84c27.24,27.13,60.57,40.88,99.06,40.88h103.84c13.25,0,24.8,4.76,34.34,14.14,9.56,9.43,14.42,21.08,14.42,34.62s-4.85,25.21-14.43,34.62c-9.53,9.38-21.08,14.14-34.33,14.14h-145.37c-51.8,0-94.4,40.16-98.29,90.98l243.66.38c38.47,0,71.73-13.75,98.85-40.88,27.12-27.12,40.87-60.51,40.87-99.24s-13.87-71.7-41.24-98.82Z"/>
  <path class="cls-2" d="M1901.06,1135.86c0,38.73-13.75,72.12-40.87,99.24-27.12,27.13-60.38,40.88-98.85,40.88l-243.66-.38c3.89-50.82,46.48-90.98,98.29-90.98h145.37c13.26,0,24.81-4.76,34.33-14.14,9.57-9.41,14.43-21.06,14.43-34.62s-4.85-25.19-14.42-34.62c-9.54-9.38-21.1-14.14-34.34-14.14h-103.84c-38.49,0-71.82-13.75-99.06-40.88-27.24-27.12-41.06-60.37-41.06-98.84s13.75-72.12,40.88-99.24c27.12-27.12,60.51-40.87,99.24-40.87l243.27.38c-3.89,50.81-46.49,90.97-98.29,90.97h-145.38c-13.27,0-24.77,4.78-34.18,14.19-9.41,9.41-14.18,21.04-14.18,34.57s4.77,25.18,14.18,34.58c9.4,9.4,20.91,14.18,34.18,14.18h102.67c39.01,0,72.66,13.76,100.05,40.9,27.37,27.12,41.24,60.37,41.24,98.82Z"/>
  <path class="cls-2" d="M2578.71,1098.5c0-50.21-40.17-90.38-90.38-90.38s-90.38,40.17-90.38,90.38,40.17,90.38,90.38,90.38h50.21v87.03h-50.21c-97.75,0-177.42-79.67-177.42-177.42s79.67-177.42,177.42-177.42,177.42,79.67,177.42,177.42v177.42h-87.03v-177.42Z"/>
  <path class="cls-2" d="M2692.51,1098.5c0-97.75,79.67-177.42,177.42-177.42h50.21v87.03h-50.21c-50.21,0-90.38,40.17-90.38,90.38v177.42h-87.03v-177.42Z"/>
  <path class="cls-2" d="M3117.63,1098.5l184.12,177.42h-122.52l-145.28-139.49v139.49h-87.03v-468.64c24.03,0,45.79,9.74,61.54,25.49,15.75,15.75,25.49,37.51,25.49,61.54v166.27l145.28-139.49h122.52l-184.12,177.42Z"/>
  <path class="cls-5" d="M1192.04,954.71c-7.02,2.72-13.95,5.68-21.05,8.16-42.25,14.82-85.25,26.25-130.49,23.21-46.55-3.08-92.22-12.22-137.47-23.25-23.45-5.76-46.74-12.06-70.11-18.09-6.54-1.7-13.12-3.35-19.71-4.97-5.36-1.34-10.72-2.6-16.12-3.86-9.34-2.17-18.68-3.55-27.9-4.18,22.58-12.69,47.21-18.45,47.21-18.45-53.64.83-100.46,19.23-127.14,32.36-.32.12-.63.28-.91.43-7.05,3.19-13.87,6.9-20.42,11.15-.2.12-.39.24-.59.36-.32.16-.63.39-.94.59-.51.35-.79.51-.79.51-24.36,16.24-44.65,39.25-58.45,67.91-26.21,54.43-36.89,111.62-26.17,171.88.83,4.69,1.97,9.34,2.99,14.03-8.39-11.51-15.73-23.33-21.95-35.47-18.57-36.42-26.92-75.71-22.7-117.76,9.58-95.34,56.56-167.03,142.32-211.84,12.53-6.58,25.26-12.93,38.35-18.29,28.02-11.43,50.65-28.69,68.7-53.4,19.94-27.35,42.64-52.58,71.1-71.69,16.36-10.96,34.09-18.13,55.41-19.71-2.64,6.23-4.97,11.55-7.21,16.95-13.01,30.78-23.76,62.15-25.22,95.93-.32,6.86.32,13.88,1.3,20.69,2.48,16.99,11.03,29.99,26.05,38.86,49.19,29.01,101.17,51.91,155.32,69.92,33.54,11.15,67.63,20.14,102.86,24.16,7.69.87,15.45,1.42,23.73,3.86Z"/>
  <path class="cls-2" d="M805.83,1294.68c-211.21,7.61-198.32-214.99-198.32-214.99-.2.16-.31.39-.39.67-2.41,9.73-9.74,40.04-9.74,80.8-.04,116.31,95.18,220.08,207.51,227.92.83.04,1.66.04,2.44.16,80.25,9.3,150.99-3.78,228.08,86.43-23.14-101.76-111.58-174.83-229.58-180.98Z"/>
  <path class="cls-1" d="M1369.39,1014.69c-36.7,4.18-73.35,10.09-109.17,17.58-48.16,10.01-149.65,43.2-229.34,84.03-6.74,3.43-14.27,4.93-21.8,4.18-5.24-.55-10.29-2.09-14.86-4.65-5.24-2.92-13.52-7.29-24.43-12.1-3.94-1.74-8.24-3.55-12.85-5.36-47.89-18.84-130.53-39.14-224.49-9.62-4.45,1.34-8.91,2.88-13.4,4.49-1.62.59-1.46,2.99.24,3.31,6.34,1.14,17.1,3.27,30.31,6.54,46.23,11.31,122.14,36.46,139.99,81.82-1.66.87-3.31,1.73-5.01,2.56-7.33,3.66-14.9,6.86-22.7,9.58-19.94,6.98-41.42,10.76-63.73,10.76-40.32,0-77.72-12.3-108.7-33.38-24.63-16.79-49.62-45.05-64.32-71.1-.08,2.09,0,170.58,168.53,176.61,11.23.39,193.83-15.73,260.67,189.97,62.51-19.82,129.67-50.53,187.21-93.49,31.69-23.65,77.37-67.08,92.9-105.86-30.47-5.95-50.92,1.14-78.55,6.34,9.62-27.55,21.91-42.76,47.41-54.43,13.28-6.15,27.94-9.38,41.62-14.66,3.67-1.3,7.84-5.04,8.95-8.55,11.86-35.98,40.91-117.49,45.64-152.49,3.11-23.14-6.94-34.64-30.11-32.08ZM1303.1,1086.94c-24.24,8.91-42.76-.32-42.76-.32,21.76-7.72,22.94-13.56,42.45-20.34,24.52-8.55,24.55,11.74.32,20.65Z"/>
  <path class="cls-4" d="M1532.51,1338.73v18.48h24.82v11.72h-24.82v19.54h27.99v12.04h-42.77v-73.82h42.77v12.04h-27.99Z"/>
  <path class="cls-4" d="M1640.02,1356.57v12.46h-44.78v-12.46h44.78Z"/>
  <path class="cls-4" d="M1679.05,1344.06c3.27-5.74,7.74-10.21,13.41-13.41,5.67-3.2,12.02-4.81,19.06-4.81,8.24,0,15.45,2.11,21.65,6.34,6.19,4.23,10.53,10.07,12.99,17.53h-17c-1.69-3.52-4.07-6.16-7.13-7.92-3.06-1.76-6.6-2.64-10.61-2.64-4.3,0-8.12,1-11.46,3.01-3.35,2.01-5.95,4.84-7.82,8.5-1.87,3.66-2.8,7.96-2.8,12.88s.93,9.14,2.8,12.83c1.86,3.7,4.47,6.55,7.82,8.55,3.34,2.01,7.16,3.01,11.46,3.01,4.01,0,7.55-.9,10.61-2.69,3.06-1.8,5.44-4.45,7.13-7.97h17c-2.46,7.54-6.78,13.4-12.94,17.59-6.16,4.19-13.4,6.28-21.7,6.28-7.04,0-13.4-1.6-19.06-4.81-5.67-3.2-10.14-7.66-13.41-13.36-3.27-5.7-4.91-12.18-4.91-19.43s1.64-13.75,4.91-19.49Z"/>
  <path class="cls-4" d="M1790.74,1397.71c-4.51-2.5-8.04-6.04-10.61-10.61-2.57-4.58-3.86-9.86-3.86-15.84s1.32-11.26,3.96-15.84c2.64-4.58,6.25-8.11,10.83-10.61,4.58-2.5,9.68-3.75,15.31-3.75s10.74,1.25,15.31,3.75c4.58,2.5,8.19,6.04,10.83,10.61,2.64,4.58,3.96,9.86,3.96,15.84s-1.36,11.27-4.07,15.84c-2.71,4.58-6.37,8.12-10.98,10.61-4.61,2.5-9.77,3.75-15.47,3.75s-10.7-1.25-15.21-3.75ZM1813.5,1386.62c2.36-1.3,4.24-3.26,5.65-5.86,1.41-2.6,2.11-5.77,2.11-9.5,0-5.56-1.46-9.84-4.38-12.83-2.92-2.99-6.5-4.49-10.72-4.49s-7.76,1.5-10.61,4.49c-2.85,2.99-4.28,7.27-4.28,12.83s1.39,9.84,4.17,12.83c2.78,2.99,6.28,4.49,10.51,4.49,2.67,0,5.19-.65,7.55-1.95Z"/>
  <path class="cls-4" d="M1958.5,1347.76c4.4,4.4,6.6,10.55,6.6,18.43v34.32h-14.79v-32.32c0-4.58-1.16-8.08-3.49-10.51-2.32-2.43-5.49-3.64-9.51-3.64s-7.2,1.21-9.56,3.64c-2.36,2.43-3.54,5.93-3.54,10.51v32.32h-14.79v-32.32c0-4.58-1.16-8.08-3.49-10.51-2.32-2.43-5.49-3.64-9.5-3.64s-7.31,1.21-9.66,3.64c-2.36,2.43-3.54,5.93-3.54,10.51v32.32h-14.79v-58.51h14.79v7.08c1.9-2.46,4.35-4.4,7.34-5.81,2.99-1.41,6.28-2.11,9.88-2.11,4.58,0,8.66.97,12.25,2.9,3.59,1.94,6.37,4.7,8.34,8.29,1.9-3.38,4.66-6.09,8.29-8.13,3.63-2.04,7.55-3.06,11.78-3.06,7.18,0,12.97,2.2,17.37,6.6Z"/>
  <path class="cls-4" d="M2090.31,1347.76c4.4,4.4,6.6,10.55,6.6,18.43v34.32h-14.79v-32.32c0-4.58-1.16-8.08-3.49-10.51-2.32-2.43-5.49-3.64-9.51-3.64s-7.2,1.21-9.56,3.64c-2.36,2.43-3.54,5.93-3.54,10.51v32.32h-14.79v-32.32c0-4.58-1.16-8.08-3.49-10.51-2.32-2.43-5.49-3.64-9.5-3.64s-7.31,1.21-9.66,3.64c-2.36,2.43-3.54,5.93-3.54,10.51v32.32h-14.79v-58.51h14.79v7.08c1.9-2.46,4.35-4.4,7.34-5.81,2.99-1.41,6.28-2.11,9.88-2.11,4.58,0,8.66.97,12.25,2.9,3.59,1.94,6.37,4.7,8.34,8.29,1.9-3.38,4.66-6.09,8.29-8.13,3.63-2.04,7.55-3.06,11.78-3.06,7.18,0,12.97,2.2,17.37,6.6Z"/>
  <path class="cls-4" d="M2186.05,1375.69h-42.77c.35,4.23,1.83,7.54,4.44,9.93,2.6,2.39,5.81,3.59,9.61,3.59,5.49,0,9.4-2.36,11.72-7.08h15.95c-1.69,5.63-4.93,10.26-9.72,13.89-4.79,3.63-10.67,5.44-17.64,5.44-5.63,0-10.69-1.25-15.16-3.75-4.47-2.5-7.96-6.04-10.46-10.61-2.5-4.58-3.75-9.86-3.75-15.84s1.23-11.37,3.7-15.95c2.46-4.58,5.91-8.1,10.35-10.56,4.44-2.46,9.54-3.7,15.31-3.7s10.54,1.2,14.94,3.59c4.4,2.39,7.82,5.79,10.24,10.19,2.43,4.4,3.64,9.45,3.64,15.16,0,2.11-.14,4.01-.42,5.7ZM2171.15,1365.76c-.07-3.8-1.44-6.85-4.12-9.14-2.68-2.29-5.95-3.43-9.82-3.43-3.66,0-6.74,1.11-9.24,3.33-2.5,2.22-4.03,5.3-4.59,9.24h27.78Z"/>
  <path class="cls-4" d="M2240.59,1343.8c3.06-1.76,6.56-2.64,10.51-2.64v15.53h-3.91c-4.65,0-8.15,1.09-10.51,3.27-2.36,2.18-3.54,5.99-3.54,11.41v29.15h-14.79v-58.51h14.79v9.08c1.9-3.1,4.38-5.53,7.45-7.29Z"/>
  <path class="cls-4" d="M2282.05,1355.36c2.46-4.54,5.88-8.06,10.24-10.56,4.36-2.5,9.36-3.75,15-3.75,7.25,0,13.25,1.81,18.01,5.44,4.75,3.63,7.94,8.71,9.56,15.26h-15.95c-.85-2.53-2.27-4.52-4.28-5.97-2.01-1.44-4.49-2.16-7.45-2.16-4.22,0-7.57,1.53-10.03,4.59-2.46,3.06-3.7,7.41-3.7,13.04s1.23,9.88,3.7,12.94c2.46,3.06,5.81,4.59,10.03,4.59,5.98,0,9.89-2.67,11.72-8.03h15.95c-1.62,6.34-4.82,11.37-9.61,15.1-4.79,3.73-10.77,5.6-17.95,5.6-5.63,0-10.63-1.25-15-3.75-4.37-2.5-7.78-6.02-10.24-10.56-2.47-4.54-3.7-9.84-3.7-15.89s1.23-11.35,3.7-15.9Z"/>
  <path class="cls-4" d="M2420.82,1375.69h-42.77c.35,4.23,1.83,7.54,4.44,9.93,2.6,2.39,5.81,3.59,9.61,3.59,5.49,0,9.4-2.36,11.72-7.08h15.95c-1.69,5.63-4.93,10.26-9.72,13.89-4.79,3.63-10.67,5.44-17.64,5.44-5.63,0-10.69-1.25-15.16-3.75-4.47-2.5-7.96-6.04-10.46-10.61-2.5-4.58-3.75-9.86-3.75-15.84s1.23-11.37,3.7-15.95c2.46-4.58,5.91-8.1,10.35-10.56,4.44-2.46,9.54-3.7,15.31-3.7s10.54,1.2,14.94,3.59c4.4,2.39,7.82,5.79,10.24,10.19,2.43,4.4,3.64,9.45,3.64,15.16,0,2.11-.14,4.01-.42,5.7ZM2405.93,1365.76c-.07-3.8-1.44-6.85-4.12-9.14-2.68-2.29-5.95-3.43-9.82-3.43-3.66,0-6.74,1.11-9.24,3.33-2.5,2.22-4.03,5.3-4.59,9.24h27.78Z"/>
  <path class="cls-4" d="M2556.11,1400.51l-8.03-7.92c-6.83,6.13-15.17,9.19-25.03,9.19-5.42,0-10.19-.93-14.31-2.8-4.12-1.86-7.31-4.5-9.56-7.92-2.25-3.41-3.38-7.38-3.38-11.88,0-4.86,1.37-9.22,4.12-13.1,2.75-3.87,6.79-7,12.15-9.4-1.9-2.32-3.27-4.56-4.12-6.71-.85-2.15-1.27-4.45-1.27-6.92,0-3.38.88-6.42,2.64-9.14,1.76-2.71,4.28-4.84,7.55-6.39,3.27-1.55,7.09-2.32,11.46-2.32s8.24.85,11.41,2.54c3.17,1.69,5.53,3.94,7.08,6.76,1.55,2.82,2.22,5.95,2.01,9.4h-14.36c.07-2.32-.49-4.1-1.69-5.33-1.2-1.23-2.82-1.85-4.86-1.85s-3.61.58-4.91,1.74c-1.3,1.16-1.95,2.66-1.95,4.49s.53,3.5,1.58,5.23c1.06,1.73,2.78,3.86,5.18,6.39l18.59,18.38c.14-.14.25-.28.32-.42.07-.14.14-.28.21-.42l6.02-10.03h15.42l-7.39,12.99c-1.41,2.75-2.92,5.35-4.54,7.82l17.85,17.64h-18.17ZM2538.79,1383.4l-18.17-17.95c-6.83,3.03-10.24,7.32-10.24,12.88,0,3.17,1.2,5.83,3.59,7.97,2.39,2.15,5.56,3.22,9.51,3.22,5.77,0,10.88-2.04,15.31-6.13Z"/>
  <path class="cls-4" d="M2660.51,1398.61c-4.12-1.76-7.38-4.29-9.77-7.6-2.39-3.31-3.63-7.22-3.7-11.72h15.84c.21,3.03,1.28,5.42,3.22,7.18,1.94,1.76,4.59,2.64,7.97,2.64s6.16-.83,8.13-2.48c1.97-1.65,2.96-3.82,2.96-6.5,0-2.18-.67-3.98-2.01-5.39-1.34-1.41-3.01-2.52-5.02-3.33-2.01-.81-4.77-1.71-8.29-2.69-4.79-1.41-8.68-2.8-11.67-4.17-2.99-1.37-5.56-3.45-7.71-6.23-2.15-2.78-3.22-6.5-3.22-11.14,0-4.36,1.09-8.17,3.27-11.41,2.18-3.24,5.24-5.72,9.19-7.45,3.94-1.72,8.45-2.59,13.52-2.59,7.6,0,13.78,1.85,18.53,5.54,4.75,3.7,7.38,8.85,7.87,15.47h-16.26c-.14-2.53-1.21-4.63-3.22-6.28-2.01-1.65-4.66-2.48-7.97-2.48-2.89,0-5.19.74-6.92,2.22-1.73,1.48-2.59,3.63-2.59,6.44,0,1.97.65,3.61,1.95,4.91,1.3,1.3,2.92,2.36,4.86,3.17,1.94.81,4.66,1.74,8.19,2.8,4.79,1.41,8.7,2.82,11.72,4.22,3.03,1.41,5.63,3.52,7.82,6.34,2.18,2.82,3.27,6.51,3.27,11.09,0,3.94-1.02,7.6-3.06,10.98-2.04,3.38-5.04,6.07-8.98,8.08-3.94,2.01-8.63,3.01-14.05,3.01-5.14,0-9.77-.88-13.89-2.64Z"/>
  <path class="cls-4" d="M2745.16,1397.71c-4.51-2.5-8.04-6.04-10.61-10.61-2.57-4.58-3.86-9.86-3.86-15.84s1.32-11.26,3.96-15.84c2.64-4.58,6.25-8.11,10.83-10.61,4.58-2.5,9.68-3.75,15.31-3.75s10.74,1.25,15.31,3.75c4.58,2.5,8.19,6.04,10.83,10.61,2.64,4.58,3.96,9.86,3.96,15.84s-1.36,11.27-4.07,15.84c-2.71,4.58-6.37,8.12-10.98,10.61-4.61,2.5-9.77,3.75-15.47,3.75s-10.7-1.25-15.21-3.75ZM2767.92,1386.62c2.36-1.3,4.24-3.26,5.65-5.86,1.41-2.6,2.11-5.77,2.11-9.5,0-5.56-1.46-9.84-4.38-12.83-2.92-2.99-6.5-4.49-10.72-4.49s-7.76,1.5-10.61,4.49c-2.85,2.99-4.28,7.27-4.28,12.83s1.39,9.84,4.17,12.83c2.78,2.99,6.28,4.49,10.51,4.49,2.67,0,5.19-.65,7.55-1.95Z"/>
  <path class="cls-4" d="M2837.68,1322.36v78.16h-14.79v-78.16h14.79Z"/>
  <path class="cls-4" d="M2928.61,1342v58.51h-14.89v-7.39c-1.9,2.54-4.38,4.53-7.45,5.97-3.06,1.44-6.39,2.16-9.98,2.16-4.58,0-8.63-.97-12.15-2.9-3.52-1.94-6.28-4.79-8.29-8.56-2.01-3.77-3.01-8.25-3.01-13.47v-34.32h14.79v32.21c0,4.65,1.16,8.22,3.49,10.72,2.32,2.5,5.49,3.75,9.5,3.75s7.29-1.25,9.61-3.75c2.32-2.5,3.49-6.07,3.49-10.72v-32.21h14.89Z"/>
  <path class="cls-4" d="M2981.53,1354.15v28.3c0,1.97.48,3.4,1.43,4.28.95.88,2.55,1.32,4.81,1.32h6.87v12.46h-9.29c-12.46,0-18.69-6.05-18.69-18.17v-28.2h-6.97v-12.15h6.97v-14.47h14.89v14.47h13.1v12.15h-13.1Z"/>
  <path class="cls-4" d="M3027.41,1332.55c-1.73-1.65-2.59-3.71-2.59-6.18s.86-4.52,2.59-6.18c1.72-1.65,3.89-2.48,6.5-2.48s4.77.83,6.5,2.48c1.72,1.65,2.59,3.71,2.59,6.18s-.86,4.52-2.59,6.18c-1.73,1.65-3.89,2.48-6.5,2.48s-4.77-.83-6.5-2.48ZM3041.2,1342v58.51h-14.79v-58.51h14.79Z"/>
  <path class="cls-4" d="M3087.67,1397.71c-4.51-2.5-8.04-6.04-10.61-10.61-2.57-4.58-3.86-9.86-3.86-15.84s1.32-11.26,3.96-15.84c2.64-4.58,6.25-8.11,10.83-10.61,4.58-2.5,9.68-3.75,15.31-3.75s10.74,1.25,15.31,3.75c4.58,2.5,8.19,6.04,10.83,10.61,2.64,4.58,3.96,9.86,3.96,15.84s-1.36,11.27-4.07,15.84c-2.71,4.58-6.37,8.12-10.98,10.61-4.61,2.5-9.77,3.75-15.47,3.75s-10.7-1.25-15.21-3.75ZM3110.43,1386.62c2.36-1.3,4.24-3.26,5.65-5.86,1.41-2.6,2.11-5.77,2.11-9.5,0-5.56-1.46-9.84-4.38-12.83-2.92-2.99-6.5-4.49-10.72-4.49s-7.76,1.5-10.61,4.49c-2.85,2.99-4.28,7.27-4.28,12.83s1.39,9.84,4.17,12.83c2.78,2.99,6.28,4.49,10.51,4.49,2.67,0,5.19-.65,7.55-1.95Z"/>
  <path class="cls-4" d="M3214.72,1347.76c4.29,4.4,6.44,10.55,6.44,18.43v34.32h-14.79v-32.32c0-4.65-1.16-8.22-3.49-10.72-2.32-2.5-5.49-3.75-9.5-3.75s-7.31,1.25-9.66,3.75c-2.36,2.5-3.54,6.07-3.54,10.72v32.32h-14.79v-58.51h14.79v7.29c1.97-2.54,4.49-4.52,7.55-5.97,3.06-1.44,6.42-2.16,10.09-2.16,6.97,0,12.6,2.2,16.9,6.6Z"/>
  <path class="cls-4" d="M3265.84,1398.87c-3.8-1.72-6.81-4.07-9.03-7.02-2.22-2.96-3.43-6.23-3.64-9.82h14.89c.28,2.25,1.39,4.12,3.33,5.6,1.94,1.48,4.35,2.22,7.23,2.22s5.02-.56,6.6-1.69c1.58-1.13,2.38-2.57,2.38-4.33,0-1.9-.97-3.33-2.9-4.28-1.94-.95-5.02-1.99-9.24-3.11-4.37-1.06-7.94-2.15-10.72-3.27-2.78-1.12-5.17-2.85-7.18-5.17-2.01-2.32-3.01-5.46-3.01-9.4,0-3.24.93-6.2,2.8-8.87,1.86-2.68,4.54-4.79,8.03-6.34,3.49-1.55,7.59-2.32,12.3-2.32,6.97,0,12.53,1.74,16.69,5.23,4.15,3.49,6.44,8.19,6.86,14.1h-14.15c-.21-2.32-1.18-4.17-2.9-5.54-1.73-1.37-4.03-2.06-6.92-2.06-2.68,0-4.74.49-6.18,1.48-1.44.99-2.17,2.36-2.17,4.12,0,1.97.99,3.47,2.96,4.49,1.97,1.02,5.03,2.06,9.19,3.12,4.22,1.06,7.71,2.15,10.46,3.27,2.75,1.13,5.12,2.87,7.13,5.23,2.01,2.36,3.04,5.48,3.12,9.35,0,3.38-.93,6.41-2.8,9.08-1.87,2.68-4.54,4.77-8.03,6.28-3.49,1.51-7.55,2.27-12.2,2.27s-9.08-.86-12.88-2.59Z"/>
</svg>