<svg width="64" height="64" viewBox="0 0 64 64" fill="none" xmlns="http://www.w3.org/2000/svg">
<path d="M42.828 6.54419C43.5779 7.2943 43.9991 8.31154 43.9991 9.37219C43.9991 10.4328 43.5779 11.4501 42.828 12.2002L23.028 32.0002L42.828 51.8002C43.5566 52.5546 43.9598 53.565 43.9507 54.6138C43.9416 55.6626 43.5209 56.6658 42.7793 57.4075C42.0376 58.1491 41.0344 58.5698 39.9856 58.5789C38.9368 58.588 37.9264 58.1848 37.172 57.4562L14.544 34.8282C13.7941 34.0781 13.3728 33.0608 13.3728 32.0002C13.3728 30.9395 13.7941 29.9223 14.544 29.1722L37.172 6.54419C37.9221 5.79431 38.9393 5.37305 40 5.37305C41.0607 5.37305 42.0779 5.79431 42.828 6.54419Z" fill="#888888"/>
</svg>
