<svg width="101" height="100" viewBox="0 0 101 100" fill="none" xmlns="http://www.w3.org/2000/svg">
<rect x="0.666626" width="100" height="100" rx="50" fill="#FBFEFB"/>
<path d="M84.6666 28.1324L52.9359 10.7164C52.088 10.2465 51.1353 10 50.1666 10C49.198 10 48.2452 10.2465 47.3974 10.7164L15.6666 28.1396C14.7605 28.6369 14.004 29.3692 13.4763 30.26C12.9486 31.1507 12.669 32.1672 12.6666 33.2034V67.7966C12.669 68.8328 12.9486 69.8493 13.4763 70.74C14.004 71.6308 14.7605 72.3631 15.6666 72.8604L47.3974 90.2836C48.2452 90.7535 49.198 91 50.1666 91C51.1353 91 52.088 90.7535 52.9359 90.2836L84.6666 72.8604C85.5728 72.3631 86.3292 71.6308 86.8569 70.74C87.3847 69.8493 87.6643 68.8328 87.6666 67.7966V33.207C87.6662 32.169 87.3875 31.1502 86.8597 30.2574C86.3319 29.3646 85.5744 28.6306 84.6666 28.1324ZM50.1666 15.7802L79.1354 31.6951L68.401 37.5909L39.4286 21.676L50.1666 15.7802ZM50.1666 47.61L21.1979 31.6951L33.4214 24.9819L62.3902 40.8968L50.1666 47.61ZM18.4359 36.7589L47.282 52.5943V83.6247L18.4359 67.8002V36.7589ZM81.8974 67.7857L53.0512 83.6247V52.6087L64.5897 46.2753V59.1845C64.5897 59.9519 64.8936 60.6879 65.4346 61.2306C65.9756 61.7732 66.7093 62.0781 67.4743 62.0781C68.2394 62.0781 68.9731 61.7732 69.5141 61.2306C70.055 60.6879 70.3589 59.9519 70.3589 59.1845V43.1068L81.8974 36.7589V67.7821V67.7857Z" fill="#0B0500"/>
</svg>
