<svg width="61" height="60" viewBox="0 0 61 60" fill="none" xmlns="http://www.w3.org/2000/svg">
<path d="M50.3333 55V42.5C50.3333 37.7875 50.3333 35.43 48.8683 33.965C47.4033 32.5 45.0483 32.5 40.3333 32.5L30.3333 55L20.3333 32.5C15.6183 32.5 13.2633 32.5 11.7983 33.965C10.3333 35.43 10.3333 37.7875 10.3333 42.5V55" stroke="#0B0500" stroke-width="2.5" stroke-linecap="round" stroke-linejoin="round"/>
<path d="M30.3333 37.5L29.0833 47.5L30.3333 51.25L31.5833 47.5L30.3333 37.5ZM30.3333 37.5L27.8333 32.5H32.8333L30.3333 37.5ZM39.0833 16.25V13.75C39.0833 11.4294 38.1614 9.20376 36.5204 7.56282C34.8795 5.92187 32.6539 5 30.3333 5C28.0126 5 25.787 5.92187 24.1461 7.56282C22.5051 9.20376 21.5833 11.4294 21.5833 13.75V16.25C21.5833 17.3991 21.8096 18.5369 22.2493 19.5985C22.689 20.6601 23.3336 21.6247 24.1461 22.4372C24.9586 23.2497 25.9232 23.8942 26.9848 24.3339C28.0464 24.7737 29.1842 25 30.3333 25C31.4823 25 32.6201 24.7737 33.6817 24.3339C34.7433 23.8942 35.7079 23.2497 36.5204 22.4372C37.3329 21.6247 37.9775 20.6601 38.4172 19.5985C38.8569 18.5369 39.0833 17.3991 39.0833 16.25Z" stroke="#0B0500" stroke-width="2.5" stroke-linecap="round" stroke-linejoin="round"/>
</svg>
