<svg width="100" height="100" viewBox="0 0 100 100" fill="none" xmlns="http://www.w3.org/2000/svg">
<rect width="100" height="100" rx="50" fill="#FBFEFB"/>
<path opacity="0.5" d="M50 32.292C47.6745 32.292 45.3718 32.75 43.2233 33.64C41.0748 34.5299 39.1227 35.8343 37.4783 37.4786C35.8339 39.123 34.5296 41.0752 33.6396 43.2236C32.7497 45.3721 32.2917 47.6748 32.2917 50.0003C32.2917 52.3258 32.7497 54.6285 33.6396 56.777C34.5296 58.9255 35.8339 60.8776 37.4783 62.522C39.1227 64.1664 41.0748 65.4708 43.2233 66.3607C45.3718 67.2506 47.6745 67.7087 50 67.7087C54.6965 67.7087 59.2007 65.843 62.5217 62.522C65.8426 59.2011 67.7083 54.6969 67.7083 50.0003C67.7083 45.3038 65.8426 40.7996 62.5217 37.4786C59.2007 34.1577 54.6965 32.292 50 32.292ZM26.0417 50.0003C26.0417 43.6462 28.5658 37.5523 33.0589 33.0592C37.5519 28.5662 43.6458 26.042 50 26.042C56.3541 26.042 62.448 28.5662 66.9411 33.0592C71.4342 37.5523 73.9583 43.6462 73.9583 50.0003C73.9583 56.3545 71.4342 62.4484 66.9411 66.9414C62.448 71.4345 56.3541 73.9587 50 73.9587C43.6458 73.9587 37.5519 71.4345 33.0589 66.9414C28.5658 62.4484 26.0417 56.3545 26.0417 50.0003Z" fill="#0B0500"/>
<path d="M19.7917 50C19.794 43.5302 21.8734 37.2321 25.7238 32.0328C29.5742 26.8335 34.9921 23.0077 41.18 21.1187C47.3679 19.2297 53.9988 19.3773 60.0966 21.5397C66.1943 23.7021 71.4367 27.7651 75.052 33.1306C78.6673 38.496 80.4644 44.8805 80.1789 51.344C79.8933 57.8075 77.5402 64.0086 73.4659 69.0343C69.3915 74.0601 63.8113 77.645 57.5466 79.2613C51.282 80.8776 44.6639 80.4398 38.6667 78.0125C38.2837 77.8441 37.8709 77.7542 37.4526 77.7483C37.0343 77.7423 36.6191 77.8204 36.2316 77.978C35.844 78.1355 35.492 78.3692 35.1965 78.6653C34.901 78.9614 34.6679 79.3138 34.5111 79.7016C34.3543 80.0894 34.2769 80.5048 34.2836 80.9231C34.2904 81.3414 34.381 81.754 34.5501 82.1366C34.7193 82.5192 34.9636 82.864 35.2684 83.1504C35.5733 83.4369 35.9326 83.6592 36.325 83.8042C44.1202 86.9561 52.7653 87.3167 60.796 84.8249C68.8266 82.3331 75.7491 77.142 80.391 70.1311C85.0328 63.1201 87.1086 54.7201 86.2667 46.354C85.4249 37.9879 81.7171 30.17 75.7715 24.2244C69.8259 18.2787 62.0079 14.571 53.6418 13.7292C45.2757 12.8873 36.8758 14.9631 29.8648 19.6049C22.8538 24.2467 17.6628 31.1692 15.171 39.1999C12.6792 47.2305 13.0397 55.8756 16.1917 63.6709C16.3367 64.0633 16.559 64.4226 16.8454 64.7274C17.1319 65.0323 17.4766 65.2766 17.8592 65.4457C18.2418 65.6149 18.6545 65.7055 19.0728 65.7122C19.4911 65.7189 19.9064 65.6416 20.2943 65.4848C20.6821 65.328 21.0345 65.0949 21.3306 64.7994C21.6267 64.5038 21.8604 64.1518 22.0179 63.7643C22.1754 63.3768 22.2535 62.9615 22.2476 62.5432C22.2416 62.125 22.1518 61.7121 21.9833 61.3292C20.5265 57.7302 19.7822 53.8827 19.7917 50Z" fill="#0B0500"/>
<path d="M50 58.3337C51.7907 58.333 53.5335 57.7555 54.9703 56.6867C56.4071 55.618 57.4614 54.1149 57.977 52.4001C58.4927 50.6853 58.4423 48.85 57.8332 47.166C57.2242 45.4821 56.089 44.0392 54.5957 43.0509C53.1024 42.0627 51.3305 41.5818 49.5425 41.6794C47.7545 41.777 46.0455 42.4479 44.6686 43.5928C43.2918 44.7377 42.3203 46.2957 41.8982 48.0359C41.4761 49.7761 41.6258 51.606 42.325 53.2545L29.0375 66.542L28.9167 66.667H24.0417C22.3846 66.6685 20.796 67.3279 19.625 68.5003L12.8042 75.3212C12.3677 75.7582 12.0705 76.3148 11.9502 76.9206C11.8298 77.5264 11.8917 78.1543 12.128 78.725C12.3643 79.2957 12.7644 79.7836 13.2778 80.127C13.7912 80.4704 14.3948 80.654 15.0125 80.6545H19.3458V84.9878C19.3464 85.6055 19.53 86.2091 19.8734 86.7225C20.2168 87.2359 20.7047 87.6361 21.2753 87.8724C21.846 88.1087 22.4739 88.1705 23.0797 88.0502C23.6856 87.9298 24.2421 87.6327 24.6792 87.1962L31.5 80.3712C32.6714 79.2012 33.3308 77.6143 33.3333 75.9587V71.0837L33.4583 70.9628L46.7417 57.6795C47.7417 58.1045 48.8417 58.3378 49.9958 58.3378M28.9125 70.8378L29.1625 71.0837V75.9587C29.1613 76.5107 28.941 77.0397 28.55 77.4295L23.5083 82.4712V78.5753C23.5083 78.0228 23.2889 77.4929 22.8982 77.1022C22.5075 76.7115 21.9775 76.492 21.425 76.492H17.525L22.5667 71.4503C22.7603 71.255 22.9907 71.0999 23.2446 70.9941C23.4985 70.8882 23.7708 70.8337 24.0458 70.8337L28.9125 70.8378Z" fill="#0B0500"/>
</svg>
