<svg width="64" height="64" viewBox="0 0 64 64" fill="none" xmlns="http://www.w3.org/2000/svg">
<path d="M21.1721 6.54419C20.4222 7.2943 20.0009 8.31154 20.0009 9.37219C20.0009 10.4328 20.4222 11.4501 21.1721 12.2002L40.9721 32.0002L21.1721 51.8002C20.4434 52.5546 20.0402 53.565 20.0494 54.6138C20.0585 55.6626 20.4791 56.6658 21.2208 57.4075C21.9624 58.1491 22.9657 58.5698 24.0144 58.5789C25.0632 58.588 26.0736 58.1848 26.8281 57.4562L49.4561 34.8282C50.2059 34.0781 50.6272 33.0608 50.6272 32.0002C50.6272 30.9395 50.2059 29.9223 49.4561 29.1722L26.8281 6.54419C26.0779 5.79431 25.0607 5.37305 24.0001 5.37305C22.9394 5.37305 21.9222 5.79431 21.1721 6.54419Z" fill="#888888"/>
</svg>
