<svg width="101" height="100" viewBox="0 0 101 100" fill="none" xmlns="http://www.w3.org/2000/svg">
<rect x="0.333313" width="100" height="100" rx="50" fill="#FBFEFB"/>
<path d="M42.5338 38.0579L50.0433 45.6122C51.2107 46.7793 52.7897 47.4343 54.4356 47.4343C56.0814 47.4343 57.6604 46.7793 58.8278 45.6122L79.9815 24.2999C80.13 24.1614 80.325 24.0844 80.5275 24.0844C80.7301 24.0844 80.9251 24.1614 81.0736 24.2999L84.4686 27.7152C84.7544 28.006 85.1495 28.1675 85.5606 28.1546C85.7555 28.1998 85.9514 28.1998 86.1484 28.1546C86.4481 28.0315 86.7022 27.8176 86.8755 27.5426C87.0487 27.2675 87.1325 26.945 87.1152 26.6198V14.0832C87.1152 13.6676 86.9511 13.269 86.6589 12.9751C86.3668 12.6812 85.9705 12.5161 85.5574 12.5161H73.0952C72.767 12.4915 72.4395 12.572 72.1597 12.7461C71.8798 12.9203 71.662 13.1791 71.5374 13.4855C71.4168 13.7694 71.3851 14.0835 71.4465 14.386C71.5079 14.6885 71.6595 14.9649 71.8811 15.1785L75.5587 18.7521C75.6334 18.8225 75.6929 18.9076 75.7336 19.0021C75.7743 19.0966 75.7953 19.1985 75.7953 19.3014C75.7953 19.4044 75.7743 19.5063 75.7336 19.6007C75.6929 19.6952 75.6334 19.7803 75.5587 19.8507L66.212 29.2532C57.8225 9.24304 31.0512 5.87301 18.0237 23.182C14.1887 28.2739 12.1854 34.5245 12.3418 40.9109C12.3482 41.9578 12.4103 43.0025 12.5281 44.0451C12.6204 44.8092 12.9889 45.5124 13.5635 46.0207C14.1381 46.529 14.8785 46.8068 15.6437 46.8012H16.0163C16.4235 46.7547 16.8176 46.6278 17.176 46.4277C17.5345 46.2277 17.8501 45.9585 18.1049 45.6355C18.3597 45.3125 18.5487 44.9422 18.661 44.5456C18.7732 44.1491 18.8066 43.7341 18.7592 43.3246C18.7107 42.4679 18.7107 41.6092 18.7592 40.7526C19.3149 23.7312 37.9825 13.6922 52.3591 22.6844C56.593 25.3332 59.807 29.3503 61.4745 34.0772L54.996 40.6945C54.8423 40.8352 54.6419 40.9132 54.434 40.9132C54.2261 40.9132 54.0256 40.8352 53.8719 40.6945L46.3656 33.0756C45.1982 31.9085 43.6192 31.2534 41.9733 31.2534C40.3275 31.2534 38.7485 31.9085 37.581 33.0756L13.2797 57.4897C12.6975 58.0797 12.3721 58.8782 12.3751 59.7095C12.3781 60.5409 12.7093 61.337 13.2958 61.9227C13.8823 62.5084 14.676 62.8358 15.5025 62.8327C16.3289 62.8297 17.1203 62.4966 17.7025 61.9066L19.5108 60.0907C22.2085 63.0156 25.4697 65.3576 29.0959 66.974C32.7221 68.5905 36.6374 69.4476 40.6035 69.4932C46.7975 69.5071 52.8217 67.4575 57.7358 63.6643C57.8801 63.5434 58.0619 63.4772 58.2497 63.4772C58.4375 63.4772 58.6193 63.5434 58.7636 63.6643L63.1254 68.0521C63.231 68.1554 63.305 68.287 63.3386 68.4313C63.3722 68.5756 63.364 68.7266 63.3149 68.8663C63.0182 69.7016 62.9634 70.6044 63.1567 71.4698C63.35 72.3352 63.7836 73.1277 64.4069 73.755L76.4934 85.9459C79.7181 89.5162 85.5767 88.2335 87.0381 83.6356C87.4024 82.4878 87.4301 81.2587 87.118 80.0954C86.8058 78.9321 86.167 77.884 85.278 77.0765L73.2204 64.8242C72.3402 63.9496 71.1557 63.4547 69.9186 63.4446C69.3833 63.4446 68.864 63.5383 68.3608 63.7257C68.2222 63.7754 68.0723 63.7842 67.9289 63.751C67.7854 63.7178 67.6545 63.644 67.5514 63.5383L63.1896 59.1504C63.0652 59.0073 62.9966 58.8236 62.9966 58.6335C62.9966 58.4433 63.0652 58.2596 63.1896 58.1165C65.0923 55.588 66.5661 52.7603 67.5514 49.748C67.6969 49.3523 67.7615 48.9311 67.7413 48.5097C67.7211 48.0883 67.6166 47.6753 67.4339 47.2955C67.2513 46.9158 66.9943 46.577 66.6783 46.2995C66.3624 46.0221 65.994 45.8116 65.5953 45.6808C65.1966 45.55 64.7757 45.5016 64.3579 45.5383C63.9401 45.5751 63.534 45.6963 63.1639 45.8948C62.7938 46.0932 62.4673 46.3648 62.2041 46.6932C61.9408 47.0217 61.7462 47.4002 61.6319 47.8061C60.1855 52.2442 57.3826 56.1093 53.623 58.8498C49.8634 61.5903 45.3394 63.0661 40.6966 63.0665C37.5652 63.0444 34.4719 62.3736 31.6094 61.0962C28.747 59.8188 26.1767 57.9619 24.0589 55.6415L41.506 38.0579C41.6483 37.9327 41.8309 37.8637 42.0199 37.8637C42.2089 37.8637 42.3915 37.9327 42.5338 38.0579Z" fill="#0B0500"/>
</svg>
