<?xml version="1.0" encoding="UTF-8"?>
<svg id="sq_logos" data-name="sq logos" xmlns="http://www.w3.org/2000/svg" xmlns:xlink="http://www.w3.org/1999/xlink" viewBox="0 0 3840 2160">
  <defs>
    <style>
      .cls-1 {
        fill: url(#linear-gradient-2);
      }

      .cls-2 {
        fill: #628b48;
      }

      .cls-3 {
        fill: #0b0500;
      }

      .cls-4 {
        fill: url(#linear-gradient);
      }
    </style>
    <linearGradient id="linear-gradient" x1="309.66" y1="1359.27" x2="628.39" y2="857.26" gradientUnits="userSpaceOnUse">
      <stop offset="0" stop-color="#628b48"/>
      <stop offset="1" stop-color="#eca72c"/>
    </linearGradient>
    <linearGradient id="linear-gradient-2" x1="284.67" y1="1361.99" x2="781.02" y2="1311.47" gradientUnits="userSpaceOnUse">
      <stop offset="0" stop-color="#628b48"/>
      <stop offset="1" stop-color="#eca72c"/>
    </linearGradient>
  </defs>
  <path class="cls-2" d="M2386.33,1105.84v225.12h-111.46v-225.83c0-64.17-51.62-117.17-115.8-117.15-64.28.02-115.72,51.45-115.72,115.76v227.22h-111.46v-600.21h0c61.56,0,111.46,49.9,111.46,111.46v66.13c33.64-20.04,72.88-31.63,114.72-31.82,125.54-.57,228.26,103.78,228.26,229.32Z"/>
  <path class="cls-2" d="M1842.93,1024.98c-35.07-34.75-78.17-52.37-128.12-52.37h-131.47c-17,0-31.73-6.12-43.77-18.16-12.05-12.04-18.16-26.94-18.16-44.28s6.11-32.22,18.16-44.27c12.05-12.05,26.78-18.17,43.77-18.17h186.17c66.33,0,120.88-51.42,125.86-116.49l-311.52-.49c-49.6,0-92.35,17.61-127.08,52.34-34.74,34.73-52.35,77.49-52.35,127.08s17.69,91.84,52.58,126.57c34.89,34.74,77.56,52.35,126.85,52.35h132.97c16.96,0,31.75,6.09,43.98,18.11,12.25,12.08,18.46,26.99,18.46,44.33s-6.21,32.28-18.47,44.33c-12.2,12.01-26.99,18.11-43.96,18.11h-186.16c-66.34,0-120.88,51.42-125.86,116.51l312.02.49c49.27,0,91.85-17.61,126.58-52.35,34.73-34.73,52.34-77.49,52.34-127.08s-17.77-91.82-52.81-126.55Z"/>
  <path class="cls-2" d="M1895.74,1151.53c0,49.6-17.61,92.35-52.34,127.08-34.73,34.74-77.32,52.35-126.58,52.35l-312.02-.49c4.98-65.08,59.53-116.51,125.86-116.51h186.16c16.97,0,31.77-6.09,43.96-18.11,12.26-12.05,18.47-26.97,18.47-44.33s-6.21-32.26-18.46-44.33c-12.22-12.02-27.02-18.11-43.98-18.11h-132.97c-49.29,0-91.96-17.61-126.85-52.35-34.89-34.73-52.58-77.3-52.58-126.57s17.61-92.35,52.35-127.08c34.73-34.73,77.49-52.34,127.08-52.34l311.52.49c-4.98,65.07-59.54,116.49-125.86,116.49h-186.17c-16.99,0-31.72,6.12-43.77,18.17-12.05,12.05-18.16,26.94-18.16,44.27s6.11,32.24,18.16,44.28c12.04,12.04,26.77,18.16,43.77,18.16h131.47c49.95,0,93.05,17.62,128.12,52.37,35.05,34.73,52.81,77.3,52.81,126.55Z"/>
  <path class="cls-2" d="M2763.52,1103.69c0-64.3-51.44-115.74-115.74-115.74s-115.74,51.44-115.74,115.74,51.44,115.74,115.74,115.74h64.3v111.45h-64.3c-125.17,0-227.19-102.02-227.19-227.19s102.02-227.19,227.19-227.19,227.19,102.02,227.19,227.19v227.19h-111.45v-227.19Z"/>
  <path class="cls-2" d="M2909.25,1103.69c0-125.17,102.02-227.19,227.19-227.19h64.3v111.45h-64.3c-64.3,0-115.74,51.44-115.74,115.74v227.19h-111.45v-227.19Z"/>
  <path class="cls-2" d="M3453.64,1103.69l235.77,227.19h-156.9l-186.04-178.63v178.63h-111.45v-600.13c30.77,0,58.63,12.47,78.8,32.64,20.17,20.17,32.64,48.03,32.64,78.8v212.92l186.04-178.63h156.9l-235.77,227.19Z"/>
  <path class="cls-4" d="M987.8,919.55c-8.99,3.48-17.87,7.27-26.95,10.45-54.11,18.98-109.17,33.61-167.11,29.73-59.61-3.94-118.1-15.65-176.04-29.78-30.03-7.37-59.86-15.45-89.79-23.17-8.38-2.17-16.81-4.29-25.24-6.36-6.87-1.72-13.73-3.33-20.64-4.95-11.96-2.78-23.92-4.54-35.73-5.35,28.92-16.25,60.46-23.62,60.46-23.62-68.69,1.06-128.65,24.63-162.82,41.44-.4.15-.81.35-1.16.56-9.03,4.09-17.77,8.83-26.14,14.28-.25.15-.5.3-.76.46-.4.2-.81.5-1.21.76-.66.45-1.01.66-1.01.66-31.19,20.79-57.18,50.27-74.85,86.96-33.56,69.7-47.24,142.93-33.51,220.1,1.06,6.01,2.52,11.96,3.83,17.97-10.75-14.74-20.14-29.88-28.11-45.42-23.77-46.63-34.47-96.95-29.07-150.8,12.27-122.09,72.43-213.89,182.25-271.28,16.05-8.43,32.35-16.56,49.1-23.42,35.89-14.64,64.85-36.74,87.97-68.39,25.54-35.03,54.61-67.33,91.05-91.8,20.94-14.03,43.66-23.22,70.96-25.24-3.38,7.97-6.36,14.79-9.24,21.7-16.65,39.42-30.43,79.59-32.3,122.84-.4,8.78.4,17.77,1.67,26.5,3.18,21.75,14.13,38.41,33.36,49.77,62.99,37.15,129.56,66.47,198.9,89.53,42.95,14.28,86.61,25.79,131.73,30.94,9.84,1.11,19.79,1.82,30.39,4.94Z"/>
  <path class="cls-2" d="M493.24,1354.91c-270.47,9.74-253.97-275.31-253.97-275.31-.25.2-.4.51-.5.86-3.08,12.46-12.47,51.28-12.47,103.46-.05,148.94,121.88,281.82,265.72,291.87,1.06.05,2.12.05,3.13.2,102.76,11.91,193.35-4.84,292.07,110.68-29.63-130.31-142.88-223.88-293.99-231.76Z"/>
  <path class="cls-1" d="M1214.91,996.37c-46.99,5.35-93.93,12.92-139.8,22.51-61.68,12.82-191.64,55.32-293.69,107.6-8.63,4.39-18.27,6.31-27.91,5.35-6.71-.71-13.17-2.68-19.03-5.96-6.71-3.74-17.31-9.34-31.29-15.49-5.05-2.22-10.55-4.54-16.45-6.87-61.32-24.12-167.16-50.12-287.48-12.31-5.7,1.72-11.41,3.68-17.16,5.75-2.07.76-1.87,3.83.3,4.24,8.13,1.46,21.9,4.19,38.81,8.38,59.2,14.49,156.41,46.68,179.27,104.77-2.12,1.11-4.24,2.22-6.41,3.28-9.39,4.69-19.08,8.78-29.07,12.26-25.54,8.93-53.04,13.78-81.61,13.78-51.63,0-99.53-15.75-139.2-42.75-31.54-21.5-63.54-57.69-82.37-91.05-.1,2.67,0,218.43,215.81,226.16,14.38.5,248.21-20.14,333.81,243.26,80.05-25.39,166.05-64.7,239.73-119.72,40.58-30.28,99.07-85.9,118.96-135.56-39.01-7.62-65.21,1.46-100.59,8.13,12.31-35.28,28.06-54.76,60.71-69.7,17.01-7.87,35.79-12.01,53.3-18.78,4.69-1.67,10.04-6.46,11.46-10.95,15.19-46.08,52.39-150.45,58.44-195.27,3.99-29.63-8.88-44.36-38.56-41.08ZM1130.02,1088.88c-31.04,11.41-54.76-.4-54.76-.4,27.86-9.89,29.38-17.36,54.36-26.04,31.39-10.95,31.44,15.04.4,26.45Z"/>
  <path class="cls-3" d="M1423.79,1411.32v23.67h31.78v15.01h-31.78v25.02h35.84v15.42h-54.78v-94.54h54.78v15.42h-35.84Z"/>
  <path class="cls-3" d="M1561.47,1434.17v15.96h-57.35v-15.96h57.35Z"/>
  <path class="cls-3" d="M1611.45,1418.15c4.19-7.35,9.92-13.07,17.18-17.18,7.26-4.1,15.39-6.15,24.41-6.15,10.55,0,19.79,2.71,27.73,8.11,7.93,5.41,13.48,12.9,16.63,22.45h-21.77c-2.16-4.51-5.21-7.89-9.13-10.14-3.92-2.25-8.45-3.38-13.59-3.38-5.5,0-10.39,1.29-14.67,3.86-4.28,2.57-7.62,6.2-10.01,10.89-2.39,4.69-3.58,10.19-3.58,16.5s1.19,11.7,3.58,16.43c2.39,4.73,5.72,8.39,10.01,10.95,4.28,2.57,9.17,3.85,14.67,3.85,5.14,0,9.67-1.15,13.59-3.45,3.92-2.3,6.97-5.7,9.13-10.21h21.77c-3.16,9.65-8.68,17.16-16.57,22.52-7.89,5.36-17.16,8.05-27.79,8.05-9.02,0-17.16-2.05-24.41-6.15-7.26-4.1-12.98-9.8-17.18-17.11-4.19-7.3-6.29-15.6-6.29-24.89s2.1-17.6,6.29-24.95Z"/>
  <path class="cls-3" d="M1754.47,1486.85c-5.77-3.2-10.3-7.73-13.59-13.59-3.29-5.86-4.94-12.62-4.94-20.29s1.69-14.43,5.07-20.29c3.38-5.86,8-10.39,13.86-13.59,5.86-3.2,12.4-4.8,19.61-4.8s13.75,1.6,19.61,4.8c5.86,3.2,10.48,7.73,13.86,13.59,3.38,5.86,5.07,12.62,5.07,20.29s-1.74,14.43-5.21,20.29c-3.47,5.86-8.16,10.39-14.07,13.59-5.91,3.2-12.51,4.8-19.81,4.8s-13.71-1.6-19.48-4.8ZM1783.61,1472.65c3.02-1.67,5.43-4.17,7.24-7.51,1.8-3.33,2.71-7.39,2.71-12.17,0-7.12-1.87-12.6-5.61-16.43-3.74-3.83-8.32-5.75-13.73-5.75s-9.94,1.92-13.59,5.75c-3.65,3.83-5.48,9.31-5.48,16.43s1.78,12.6,5.34,16.43c3.56,3.83,8.05,5.75,13.46,5.75,3.42,0,6.65-.83,9.67-2.5Z"/>
  <path class="cls-3" d="M1969.3,1422.88c5.63,5.64,8.45,13.5,8.45,23.6v43.95h-18.93v-41.39c0-5.86-1.49-10.35-4.46-13.46-2.98-3.11-7.03-4.67-12.17-4.67s-9.22,1.56-12.24,4.67c-3.02,3.11-4.53,7.6-4.53,13.46v41.39h-18.93v-41.39c0-5.86-1.49-10.35-4.46-13.46-2.97-3.11-7.03-4.67-12.17-4.67s-9.36,1.56-12.38,4.67c-3.02,3.11-4.53,7.6-4.53,13.46v41.39h-18.93v-74.93h18.93v9.06c2.43-3.16,5.57-5.63,9.4-7.44,3.83-1.8,8.05-2.7,12.65-2.7,5.86,0,11.09,1.24,15.69,3.72,4.6,2.48,8.16,6.02,10.69,10.62,2.43-4.33,5.97-7.8,10.62-10.41,4.64-2.61,9.67-3.92,15.08-3.92,9.2,0,16.61,2.82,22.25,8.45Z"/>
  <path class="cls-3" d="M2138.09,1422.88c5.63,5.64,8.45,13.5,8.45,23.6v43.95h-18.93v-41.39c0-5.86-1.49-10.35-4.46-13.46-2.98-3.11-7.03-4.67-12.17-4.67s-9.22,1.56-12.24,4.67c-3.02,3.11-4.53,7.6-4.53,13.46v41.39h-18.93v-41.39c0-5.86-1.49-10.35-4.46-13.46-2.97-3.11-7.03-4.67-12.17-4.67s-9.36,1.56-12.38,4.67c-3.02,3.11-4.53,7.6-4.53,13.46v41.39h-18.93v-74.93h18.93v9.06c2.43-3.16,5.57-5.63,9.4-7.44,3.83-1.8,8.05-2.7,12.65-2.7,5.86,0,11.09,1.24,15.69,3.72,4.6,2.48,8.16,6.02,10.69,10.62,2.43-4.33,5.97-7.8,10.62-10.41,4.64-2.61,9.67-3.92,15.08-3.92,9.2,0,16.61,2.82,22.25,8.45Z"/>
  <path class="cls-3" d="M2260.69,1458.65h-54.77c.45,5.41,2.34,9.65,5.68,12.71,3.34,3.07,7.44,4.6,12.31,4.6,7.03,0,12.04-3.02,15.01-9.06h20.42c-2.16,7.21-6.31,13.14-12.44,17.78-6.13,4.64-13.66,6.96-22.59,6.96-7.21,0-13.68-1.6-19.41-4.8-5.73-3.2-10.19-7.73-13.39-13.59-3.2-5.86-4.8-12.62-4.8-20.29s1.58-14.56,4.73-20.42c3.16-5.86,7.57-10.37,13.25-13.53,5.68-3.16,12.22-4.73,19.61-4.73s13.5,1.53,19.14,4.6c5.63,3.07,10.01,7.42,13.12,13.05,3.11,5.64,4.67,12.1,4.67,19.41,0,2.71-.18,5.14-.54,7.3ZM2241.62,1445.94c-.09-4.87-1.85-8.77-5.27-11.7-3.43-2.93-7.62-4.4-12.58-4.4-4.69,0-8.63,1.42-11.83,4.26-3.2,2.84-5.16,6.79-5.88,11.83h35.57Z"/>
  <path class="cls-3" d="M2330.54,1417.81c3.92-2.25,8.41-3.38,13.46-3.38v19.88h-5c-5.95,0-10.44,1.4-13.46,4.19-3.02,2.8-4.53,7.66-4.53,14.61v37.33h-18.93v-74.93h18.93v11.63c2.43-3.97,5.61-7.08,9.54-9.33Z"/>
  <path class="cls-3" d="M2383.63,1432.62c3.16-5.82,7.53-10.32,13.12-13.52,5.59-3.2,11.99-4.8,19.21-4.8,9.29,0,16.97,2.32,23.06,6.97,6.09,4.64,10.16,11.16,12.24,19.54h-20.42c-1.08-3.25-2.91-5.79-5.48-7.64-2.57-1.85-5.75-2.77-9.54-2.77-5.41,0-9.69,1.96-12.85,5.88-3.16,3.92-4.73,9.49-4.73,16.7s1.58,12.65,4.73,16.57c3.16,3.92,7.44,5.88,12.85,5.88,7.66,0,12.67-3.42,15.01-10.28h20.42c-2.07,8.11-6.18,14.56-12.31,19.34-6.13,4.78-13.79,7.17-22.99,7.17-7.21,0-13.62-1.6-19.21-4.8-5.59-3.2-9.96-7.71-13.12-13.53-3.16-5.82-4.73-12.6-4.73-20.35s1.58-14.54,4.73-20.36Z"/>
  <path class="cls-3" d="M2561.34,1458.65h-54.77c.45,5.41,2.34,9.65,5.68,12.71,3.34,3.07,7.44,4.6,12.31,4.6,7.03,0,12.04-3.02,15.01-9.06h20.42c-2.16,7.21-6.31,13.14-12.44,17.78-6.13,4.64-13.66,6.96-22.59,6.96-7.21,0-13.68-1.6-19.41-4.8-5.73-3.2-10.19-7.73-13.39-13.59-3.2-5.86-4.8-12.62-4.8-20.29s1.58-14.56,4.73-20.42c3.16-5.86,7.57-10.37,13.25-13.53,5.68-3.16,12.22-4.73,19.61-4.73s13.5,1.53,19.14,4.6c5.63,3.07,10.01,7.42,13.12,13.05,3.11,5.64,4.67,12.1,4.67,19.41,0,2.71-.18,5.14-.54,7.3ZM2542.27,1445.94c-.09-4.87-1.85-8.77-5.27-11.7-3.43-2.93-7.62-4.4-12.58-4.4-4.69,0-8.63,1.42-11.83,4.26-3.2,2.84-5.16,6.79-5.88,11.83h35.57Z"/>
  <path class="cls-3" d="M2734.59,1490.43l-10.28-10.14c-8.75,7.84-19.43,11.77-32.05,11.77-6.94,0-13.05-1.2-18.33-3.58-5.27-2.39-9.36-5.77-12.24-10.14-2.89-4.37-4.33-9.44-4.33-15.22,0-6.22,1.76-11.81,5.27-16.77,3.52-4.96,8.7-8.97,15.55-12.04-2.43-2.98-4.19-5.84-5.27-8.59-1.08-2.75-1.62-5.7-1.62-8.86,0-4.33,1.13-8.23,3.38-11.7,2.25-3.47,5.48-6.2,9.67-8.18,4.19-1.98,9.08-2.98,14.67-2.98s10.55,1.08,14.61,3.25c4.06,2.16,7.08,5.05,9.06,8.66,1.98,3.61,2.84,7.62,2.57,12.04h-18.39c.09-2.97-.63-5.25-2.16-6.83-1.53-1.58-3.61-2.37-6.22-2.37s-4.62.74-6.29,2.23c-1.67,1.49-2.5,3.4-2.5,5.75s.68,4.49,2.03,6.69c1.35,2.21,3.56,4.94,6.63,8.18l23.8,23.53c.18-.18.32-.36.41-.54.09-.18.18-.36.27-.54l7.71-12.85h19.75l-9.47,16.63c-1.8,3.52-3.74,6.85-5.82,10.01l22.86,22.59h-23.26ZM2712.41,1468.52l-23.26-22.99c-8.75,3.88-13.12,9.38-13.12,16.5,0,4.06,1.53,7.46,4.6,10.21,3.06,2.75,7.12,4.13,12.17,4.13,7.39,0,13.93-2.61,19.61-7.85Z"/>
  <path class="cls-3" d="M2868.28,1488c-5.27-2.25-9.45-5.5-12.51-9.74-3.07-4.24-4.64-9.24-4.73-15.01h20.29c.27,3.88,1.65,6.94,4.13,9.2,2.48,2.25,5.88,3.38,10.21,3.38s7.89-1.06,10.41-3.18c2.52-2.12,3.79-4.89,3.79-8.32,0-2.79-.86-5.09-2.57-6.9-1.71-1.8-3.85-3.22-6.42-4.26-2.57-1.04-6.11-2.19-10.62-3.45-6.13-1.8-11.11-3.58-14.94-5.34-3.83-1.76-7.12-4.42-9.87-7.98-2.75-3.56-4.12-8.32-4.12-14.27,0-5.59,1.4-10.46,4.19-14.61,2.79-4.15,6.71-7.33,11.77-9.54,5.05-2.21,10.82-3.31,17.31-3.31,9.74,0,17.65,2.37,23.74,7.1,6.09,4.73,9.44,11.34,10.08,19.81h-20.83c-.18-3.25-1.56-5.93-4.12-8.05-2.57-2.12-5.97-3.18-10.21-3.18-3.7,0-6.65.95-8.86,2.84-2.21,1.89-3.31,4.64-3.31,8.25,0,2.53.83,4.62,2.5,6.29,1.67,1.67,3.74,3.02,6.22,4.06,2.48,1.04,5.97,2.23,10.48,3.58,6.13,1.8,11.14,3.61,15.01,5.41,3.88,1.8,7.21,4.51,10.01,8.11,2.79,3.61,4.19,8.34,4.19,14.2,0,5.05-1.31,9.74-3.92,14.07-2.62,4.33-6.45,7.78-11.5,10.35-5.05,2.57-11.05,3.85-17.99,3.85-6.58,0-12.51-1.13-17.78-3.38Z"/>
  <path class="cls-3" d="M2976.68,1486.85c-5.77-3.2-10.3-7.73-13.59-13.59-3.29-5.86-4.94-12.62-4.94-20.29s1.69-14.43,5.07-20.29c3.38-5.86,8-10.39,13.86-13.59,5.86-3.2,12.4-4.8,19.61-4.8s13.75,1.6,19.61,4.8c5.86,3.2,10.48,7.73,13.86,13.59,3.38,5.86,5.07,12.62,5.07,20.29s-1.74,14.43-5.21,20.29c-3.47,5.86-8.16,10.39-14.07,13.59-5.91,3.2-12.51,4.8-19.81,4.8s-13.71-1.6-19.48-4.8ZM3005.82,1472.65c3.02-1.67,5.43-4.17,7.24-7.51,1.8-3.33,2.71-7.39,2.71-12.17,0-7.12-1.87-12.6-5.61-16.43-3.74-3.83-8.32-5.75-13.73-5.75s-9.94,1.92-13.59,5.75c-3.65,3.83-5.48,9.31-5.48,16.43s1.78,12.6,5.34,16.43c3.56,3.83,8.05,5.75,13.46,5.75,3.42,0,6.65-.83,9.67-2.5Z"/>
  <path class="cls-3" d="M3095.15,1390.35v100.08h-18.93v-100.08h18.93Z"/>
  <path class="cls-3" d="M3211.6,1415.51v74.93h-19.07v-9.47c-2.43,3.25-5.61,5.79-9.54,7.64-3.92,1.85-8.18,2.77-12.78,2.77-5.86,0-11.05-1.24-15.55-3.72-4.51-2.48-8.05-6.13-10.62-10.96-2.57-4.82-3.85-10.57-3.85-17.24v-43.95h18.93v41.25c0,5.95,1.49,10.53,4.46,13.73,2.98,3.2,7.03,4.8,12.17,4.8s9.33-1.6,12.31-4.8c2.97-3.2,4.46-7.78,4.46-13.73v-41.25h19.07Z"/>
  <path class="cls-3" d="M3279.35,1431.06v36.25c0,2.53.61,4.35,1.83,5.48,1.22,1.13,3.27,1.69,6.15,1.69h8.79v15.96h-11.9c-15.96,0-23.94-7.75-23.94-23.26v-36.11h-8.93v-15.55h8.93v-18.53h19.07v18.53h16.77v15.55h-16.77Z"/>
  <path class="cls-3" d="M3338.12,1403.4c-2.21-2.12-3.31-4.76-3.31-7.91s1.1-5.79,3.31-7.91c2.21-2.12,4.98-3.18,8.32-3.18s6.11,1.06,8.32,3.18c2.21,2.12,3.31,4.76,3.31,7.91s-1.11,5.79-3.31,7.91c-2.21,2.12-4.98,3.18-8.32,3.18s-6.11-1.06-8.32-3.18ZM3355.76,1415.51v74.93h-18.93v-74.93h18.93Z"/>
  <path class="cls-3" d="M3415.27,1486.85c-5.77-3.2-10.3-7.73-13.59-13.59-3.29-5.86-4.94-12.62-4.94-20.29s1.69-14.43,5.07-20.29c3.38-5.86,8-10.39,13.86-13.59,5.86-3.2,12.4-4.8,19.61-4.8s13.75,1.6,19.61,4.8c5.86,3.2,10.48,7.73,13.86,13.59,3.38,5.86,5.07,12.62,5.07,20.29s-1.74,14.43-5.21,20.29c-3.47,5.86-8.16,10.39-14.07,13.59-5.91,3.2-12.51,4.8-19.81,4.8s-13.71-1.6-19.48-4.8ZM3444.42,1472.65c3.02-1.67,5.43-4.17,7.24-7.51,1.8-3.33,2.71-7.39,2.71-12.17,0-7.12-1.87-12.6-5.61-16.43-3.74-3.83-8.32-5.75-13.73-5.75s-9.94,1.92-13.59,5.75c-3.65,3.83-5.48,9.31-5.48,16.43s1.78,12.6,5.34,16.43c3.56,3.83,8.05,5.75,13.46,5.75,3.42,0,6.65-.83,9.67-2.5Z"/>
  <path class="cls-3" d="M3577.97,1422.88c5.5,5.64,8.25,13.5,8.25,23.6v43.95h-18.93v-41.39c0-5.95-1.49-10.53-4.46-13.73-2.97-3.2-7.03-4.8-12.17-4.8s-9.36,1.6-12.38,4.8c-3.02,3.2-4.53,7.78-4.53,13.73v41.39h-18.93v-74.93h18.93v9.33c2.52-3.25,5.75-5.79,9.67-7.64,3.92-1.85,8.23-2.77,12.92-2.77,8.93,0,16.14,2.82,21.64,8.45Z"/>
  <path class="cls-3" d="M3643.43,1488.34c-4.87-2.21-8.72-5.21-11.56-8.99-2.84-3.79-4.4-7.98-4.67-12.58h19.07c.36,2.89,1.78,5.27,4.26,7.17,2.48,1.89,5.57,2.84,9.26,2.84s6.42-.72,8.45-2.16c2.03-1.44,3.04-3.29,3.04-5.55,0-2.43-1.24-4.26-3.72-5.48-2.48-1.22-6.42-2.55-11.83-3.99-5.59-1.35-10.17-2.75-13.73-4.19-3.56-1.44-6.63-3.65-9.2-6.63-2.57-2.98-3.86-6.99-3.86-12.04,0-4.15,1.19-7.93,3.58-11.36,2.39-3.43,5.81-6.13,10.28-8.11,4.46-1.98,9.71-2.98,15.76-2.98,8.93,0,16.05,2.23,21.37,6.7,5.32,4.46,8.25,10.48,8.79,18.06h-18.12c-.27-2.98-1.51-5.34-3.72-7.1-2.21-1.76-5.16-2.64-8.86-2.64-3.43,0-6.06.63-7.91,1.89-1.85,1.26-2.77,3.02-2.77,5.27,0,2.52,1.26,4.44,3.79,5.75,2.52,1.31,6.44,2.64,11.77,3.99,5.41,1.35,9.87,2.75,13.39,4.19,3.52,1.44,6.56,3.67,9.13,6.69,2.57,3.02,3.9,7.01,3.99,11.97,0,4.33-1.2,8.21-3.58,11.63-2.39,3.43-5.81,6.11-10.28,8.05-4.46,1.94-9.67,2.91-15.62,2.91s-11.63-1.11-16.5-3.31Z"/>
</svg>