<svg width="60" height="60" viewBox="0 0 60 60" fill="none" xmlns="http://www.w3.org/2000/svg">
<path d="M33.7499 43.125H29.9999V39.375C29.9984 37.8836 29.4053 36.4537 28.3507 35.3992C27.2961 34.3446 25.8663 33.7515 24.3749 33.75H16.8749C15.3835 33.7515 13.9536 34.3446 12.899 35.3992C11.8445 36.4537 11.2514 37.8836 11.2499 39.375V43.125H7.49988V39.375C7.50286 36.8895 8.49153 34.5067 10.249 32.7492C12.0065 30.9917 14.3894 30.003 16.8749 30H24.3749C26.8604 30.003 29.2432 30.9917 31.0007 32.7492C32.7582 34.5067 33.7469 36.8895 33.7499 39.375V43.125ZM20.6249 11.25C21.7374 11.25 22.8249 11.5799 23.75 12.198C24.675 12.8161 25.396 13.6946 25.8217 14.7224C26.2474 15.7502 26.3588 16.8812 26.1418 17.9724C25.9248 19.0635 25.389 20.0658 24.6024 20.8525C23.8157 21.6391 22.8134 22.1749 21.7223 22.3919C20.6311 22.609 19.5001 22.4976 18.4723 22.0718C17.4444 21.6461 16.5659 20.9251 15.9479 20.0001C15.3298 19.0751 14.9999 17.9875 14.9999 16.875C14.9999 15.3832 15.5925 13.9524 16.6474 12.8975C17.7023 11.8426 19.133 11.25 20.6249 11.25ZM20.6249 7.5C18.7707 7.5 16.9581 8.04983 15.4164 9.07997C13.8747 10.1101 12.6731 11.5743 11.9635 13.2873C11.2539 15.0004 11.0683 16.8854 11.43 18.704C11.7918 20.5225 12.6846 22.193 13.9958 23.5041C15.3069 24.8152 16.9773 25.7081 18.7959 26.0699C20.6145 26.4316 22.4995 26.2459 24.2125 25.5364C25.9256 24.8268 27.3898 23.6252 28.4199 22.0835C29.45 20.5418 29.9999 18.7292 29.9999 16.875C29.9999 14.3886 29.0122 12.004 27.254 10.2459C25.4959 8.48772 23.1113 7.5 20.6249 7.5ZM3.74988 48.75H56.2499V52.5H3.74988V48.75ZM41.2499 7.5V11.25H49.8486L37.4999 23.5988L40.1511 26.25L52.4999 13.9013V22.5H56.2499V7.5H41.2499Z" fill="#0B0500"/>
</svg>
